<?xml version="1.0" encoding="UTF-8"?>
<svg xmlns="http://www.w3.org/2000/svg" xmlns:xlink="http://www.w3.org/1999/xlink" version="1.2" >
<font id="Proxima Nova Regular Italic">
<font-face  font-family="Proxima Nova" units-per-em="2048" ascent="1618" descent="-430" font-style="italic" font-weight="400" font-stretch="normal" cap-height="1366" x-height="989" underline-position="-251" underline-thickness="40" />
<missing-glyph  horiz-adv-x="1038" d="M201 -184 L201 1540 L920 1540 L920 -184 L201 -184 Z M264 -123 L854 -123 L854 1479 L264 1479 L264 -123 Z " />
<glyph glyph-name="space" unicode="&#x20;" horiz-adv-x="530" d="" />
<glyph glyph-name="exclam" unicode="&#x21;" horiz-adv-x="471" d="M33 84 Q33 133 68.5 169 Q104 205 156 205 Q199 205 228.5 174 Q258 143 258 100 Q258 49 222 14.5 Q186 -20 135 -20 Q92 -20 62.5 9.5 Q33 39 33 84 Z M145 383 L330 1366 L522 1366 L272 383 L145 383 Z " />
<glyph glyph-name="quotedbl" unicode="&#x22;" horiz-adv-x="704" d="M238 844 Q277 1243 279 1274 Q283 1323 313.5 1354.5 Q344 1386 389 1386 Q424 1386 447.5 1361.5 Q471 1337 471 1300 Q471 1292 469 1284 Q467 1276 464 1266.5 Q461 1257 461 1253 L313 844 L238 844 Z M539 844 Q578 1243 580 1274 Q584 1323 614.5 1354.5 Q645 1386 690 1386 Q725 1386 748.5 1361.5 Q772 1337 772 1300 Q772 1284 760 1253 L614 844 L539 844 Z " />
<glyph glyph-name="numbersign" unicode="&#x23;" horiz-adv-x="1210" d="M16 371 L74 479 L295 479 L520 887 L299 887 L354 993 L582 993 L784 1366 L911 1366 L707 993 L932 993 L1137 1366 L1262 1366 L1055 993 L1274 993 L1221 887 L997 887 L768 479 L995 479 L938 371 L709 371 L504 0 L379 0 L586 371 L358 371 L154 0 L27 0 L233 371 L16 371 Z M420 479 L643 479 L870 887 L645 887 L420 479 Z " />
<glyph glyph-name="dollar" unicode="&#x24;" horiz-adv-x="1214" d="M43 221 L160 342 Q269 188 473 141 L584 635 Q504 668 453.5 694.5 Q403 721 346 763 Q289 805 261 861.5 Q233 918 233 989 Q233 1151 371.5 1270 Q510 1389 719 1389 Q723 1389 734 1387.5 Q745 1386 752 1386 L793 1573 L918 1573 L872 1372 Q1099 1323 1210 1171 L1096 1053 Q1006 1174 838 1219 L739 772 Q819 737 870.5 710.5 Q922 684 979 640 Q1036 596 1065 537.5 Q1094 479 1094 408 Q1094 234 959.5 104.5 Q825 -25 596 -25 Q590 -25 578.5 -24 Q567 -23 561 -23 L522 -205 L397 -205 L440 -10 Q164 41 43 221 Z M416 1014 Q416 951 469 906.5 Q522 862 625 819 L717 1237 L698 1237 Q579 1237 497.5 1170.5 Q416 1104 416 1014 Z M596 127 L610 127 Q757 127 834 205 Q911 283 911 381 Q911 451 857 497 Q803 543 698 588 L596 127 Z " />
<glyph glyph-name="percent" unicode="&#x25;" horiz-adv-x="1499" d="M152 0 L1325 1366 L1440 1366 L264 0 L152 0 Z M178 989 Q178 1163 286.5 1274.5 Q395 1386 543 1386 Q672 1386 760 1309.5 Q848 1233 848 1110 Q848 936 740.5 824.5 Q633 713 483 713 Q356 713 267 789.5 Q178 866 178 989 Z M301 999 Q301 921 353.5 869 Q406 817 487 817 Q585 817 656 898 Q727 979 727 1100 Q727 1178 674 1230 Q621 1282 539 1282 Q443 1282 372 1201 Q301 1120 301 999 Z M727 252 Q727 426 835.5 537.5 Q944 649 1092 649 Q1221 649 1310 572.5 Q1399 496 1399 373 Q1399 199 1290.5 87 Q1182 -25 1034 -25 Q905 -25 816 52 Q727 129 727 252 Z M850 262 Q850 184 902 132 Q954 80 1036 80 Q1134 80 1205 161 Q1276 242 1276 362 Q1276 440 1222.5 492.5 Q1169 545 1087 545 Q991 545 920.5 464 Q850 383 850 262 Z " />
<glyph glyph-name="ampersand" unicode="&#x26;" horiz-adv-x="1314" d="M33 317 Q33 411 64.5 487 Q96 563 157.5 617.5 Q219 672 282.5 706.5 Q346 741 434 778 Q387 913 387 1016 Q387 1168 499.5 1277 Q612 1386 766 1386 Q897 1386 983 1321.5 Q1069 1257 1069 1143 Q1069 1073 1041.5 1014.5 Q1014 956 980 919.5 Q946 883 875.5 844 Q805 805 761 786 L629 733 Q676 631 733 539 Q803 418 862 328 Q997 475 1081 629 L1198 557 Q1059 346 936 219 L1102 0 L907 0 Q856 63 819 115 Q635 -24 444 -25 Q264 -25 148.5 64 Q33 153 33 317 Z M205 338 Q205 225 279.5 163.5 Q354 102 463 102 Q596 102 745 221 Q645 366 600 444 Q541 544 479 672 Q348 613 276.5 536 Q205 459 205 338 Z M547 1016 Q547 940 584 836 Q666 867 716 889 Q766 911 819 946 Q872 981 897 1026 Q922 1071 922 1126 Q922 1192 879 1230 Q836 1268 770 1268 Q686 1268 616.5 1199.5 Q547 1131 547 1016 Z " />
<glyph glyph-name="quotesingle" unicode="&#x27;" horiz-adv-x="407" d="M238 844 Q277 1243 279 1274 Q283 1323 313.5 1354.5 Q344 1386 389 1386 Q424 1386 447.5 1361.5 Q471 1337 471 1300 Q471 1292 469 1284 Q467 1276 464 1266.5 Q461 1257 461 1253 L313 844 L238 844 Z " />
<glyph glyph-name="parenleft" unicode="&#x28;" horiz-adv-x="507" d="M51 186 Q51 505 187.5 819 Q324 1133 578 1403 L657 1325 Q213 745 213 129 Q213 -86 289 -346 L180 -408 Q51 -154 51 186 Z " />
<glyph glyph-name="parenright" unicode="&#x29;" horiz-adv-x="507" d="M-152 -330 Q292 250 293 866 Q293 1081 217 1341 L326 1403 Q455 1149 455 809 Q455 490 318.5 176.5 Q182 -137 -72 -408 L-152 -330 Z " />
<glyph glyph-name="asterisk" unicode="&#x2a;" horiz-adv-x="696" d="M176 1016 L410 1100 L225 1227 L289 1300 L457 1155 L496 1386 L592 1386 L526 1147 L752 1251 L778 1167 L549 1083 L731 956 L668 883 L498 1028 L459 797 L365 797 L430 1036 L205 934 L176 1016 Z " />
<glyph glyph-name="plus" unicode="&#x2b;" horiz-adv-x="1021" d="M90 637 L113 743 L506 743 L598 1167 L717 1167 L623 743 L1016 743 L991 637 L600 637 L502 201 L385 201 L481 637 L90 637 Z " />
<glyph glyph-name="comma" unicode="&#x2c;" horiz-adv-x="471" d="M-37 -180 Q100 -110 135 -8 L119 -8 Q82 -8 56.5 17.5 Q31 43 31 84 Q31 133 67.5 169 Q104 205 154 205 Q201 205 231.5 173 Q262 141 262 86 Q262 -8 193.5 -102.5 Q125 -197 27 -248 L-37 -180 Z " />
<glyph glyph-name="hyphen" unicode="&#x2d;" horiz-adv-x="614" d="M45 428 L74 563 L565 563 L537 428 L45 428 Z " />
<glyph glyph-name="period" unicode="&#x2e;" horiz-adv-x="473" d="M33 84 Q33 133 68.5 169 Q104 205 156 205 Q199 205 228.5 174 Q258 143 258 100 Q258 49 222 14.5 Q186 -20 135 -20 Q92 -20 62.5 9.5 Q33 39 33 84 Z " />
<glyph glyph-name="slash" unicode="&#x2f;" horiz-adv-x="606" d="M-123 -41 L682 1407 L811 1407 L4 -41 L-123 -41 Z " />
<glyph glyph-name="zero" unicode="0" horiz-adv-x="1253" d="M121 508 Q121 719 196.5 917.5 Q272 1116 423.5 1251 Q575 1386 766 1386 Q979 1386 1094.5 1245 Q1210 1104 1210 856 Q1210 645 1135.5 446.5 Q1061 248 910.5 111.5 Q760 -25 569 -25 Q356 -25 238.5 117.5 Q121 260 121 508 Z M293 498 Q293 330 364.5 228.5 Q436 127 584 127 Q719 127 825.5 248 Q932 369 984 534.5 Q1036 700 1036 866 Q1036 1036 966.5 1135.5 Q897 1235 748 1235 Q615 1235 507 1116 Q399 997 346 830.5 Q293 664 293 498 Z " />
<glyph glyph-name="one" unicode="1" horiz-adv-x="694" d="M158 1014 L575 1366 L725 1366 L424 0 L254 0 L506 1143 L236 909 L158 1014 Z " />
<glyph glyph-name="two" unicode="2" horiz-adv-x="1204" d="M0 0 L37 168 L349 362 Q469 440 603 537.5 Q737 635 810 708.5 Q883 782 932 863 Q981 944 981 1020 Q981 1120 899 1177.5 Q817 1235 686 1235 Q479 1235 336 1102 L256 1223 Q334 1297 451.5 1341.5 Q569 1386 696 1386 Q891 1386 1026 1294 Q1161 1202 1161 1028 Q1161 917 1095.5 803.5 Q1030 690 900 576.5 Q770 463 633 366.5 Q496 270 301 152 L971 152 L938 0 L0 0 Z " />
<glyph glyph-name="three" unicode="3" horiz-adv-x="1140" d="M-6 260 L117 356 Q168 250 277.5 188.5 Q387 127 514 127 Q664 127 752 208 Q840 289 840 414 Q840 510 760 567.5 Q680 625 537 625 Q428 625 406 623 L442 778 Q462 776 627 776 Q766 776 860 837.5 Q954 899 954 1018 Q954 1112 869 1173.5 Q784 1235 643 1235 Q446 1235 297 1102 L225 1217 Q399 1387 655 1386 Q866 1386 997 1295 Q1128 1204 1128 1042 Q1128 897 1014.5 801 Q901 705 758 692 Q867 667 937.5 591.5 Q1008 516 1008 399 Q1008 221 868.5 98 Q729 -25 516 -25 Q340 -25 194.5 54 Q49 133 -6 260 Z " />
<glyph glyph-name="four" unicode="4" horiz-adv-x="1142" d="M31 346 L66 502 L834 1366 L1075 1366 L883 496 L1075 496 L1042 346 L850 346 L774 0 L604 0 L680 346 L31 346 Z M233 496 L713 496 L870 1208 L233 496 Z " />
<glyph glyph-name="five" unicode="5" horiz-adv-x="1208" d="M72 248 L201 350 Q307 127 580 127 Q723 127 821.5 222 Q920 317 920 455 Q920 578 835 646.5 Q750 715 612 715 Q458 715 328 616 L217 672 L369 1366 L1204 1366 L1171 1214 L506 1214 L406 764 Q521 856 692.5 856 Q864 856 981 754.5 Q1098 653 1098 473 Q1098 266 949.5 120.5 Q801 -25 571 -25 Q215 -24 72 248 Z " />
<glyph glyph-name="six" unicode="6" horiz-adv-x="1210" d="M113 479 Q113 629 155 783.5 Q197 938 274.5 1075 Q352 1212 486.5 1299 Q621 1386 784 1386 Q1067 1386 1196 1182 L1081 1067 Q993 1235 774 1235 Q649 1235 550 1154 Q451 1073 397.5 965.5 Q344 858 309 723 Q299 692 299 680 Q360 748 470 802 Q580 856 692 856 Q874 856 990 759 Q1106 662 1106 496 Q1106 285 952.5 130 Q799 -25 580 -25 Q357 -25 235 107 Q113 239 113 479 Z M276 449 Q276 304 357 215.5 Q438 127 582 127 Q729 127 829.5 230.5 Q930 334 930 473 Q930 584 846 649.5 Q762 715 625 715 Q435 715 281 545 Q276 512 276 449 Z " />
<glyph glyph-name="seven" unicode="7" horiz-adv-x="1054" d="M133 0 L948 1214 L221 1214 L254 1366 L1186 1366 L1159 1249 L330 0 L133 0 Z " />
<glyph glyph-name="eight" unicode="8" horiz-adv-x="1191" d="M61 324 Q61 474 173 579 Q285 684 475 723 Q375 764 306.5 837.5 Q238 911 238 1012 Q238 1192 385 1289 Q532 1386 722.5 1386 Q913 1386 1051.5 1296 Q1190 1206 1190 1051 Q1190 906 1083.5 810.5 Q977 715 803 688 Q909 639 984 558 Q1059 477 1059 365 Q1059 195 911.5 85 Q764 -25 557 -25 Q342 -25 201.5 66.5 Q61 158 61 324 Z M242 354 Q242 245 333 186 Q424 127 561 127 Q690 127 789.5 196.5 Q889 266 889 381 Q889 471 806 537.5 Q723 604 625 629 Q459 619 350.5 544 Q242 469 242 354 Z M408 995 Q408 917 486.5 856 Q565 795 655 774 Q813 784 910.5 849.5 Q1008 915 1008 1024 Q1008 1112 922 1172.5 Q836 1233 713 1233 Q586 1233 497 1168.5 Q408 1104 408 995 Z " />
<glyph glyph-name="nine" unicode="9" horiz-adv-x="1210" d="M92 182 L207 297 Q295 129 514 129 Q610 129 690 174 Q770 219 825.5 296 Q881 373 917.5 458 Q954 543 979 641 Q985 659 991 684 Q928 614 819.5 561 Q711 508 598 508 Q416 508 299 606.5 Q182 705 182 868 Q182 1079 335.5 1234 Q489 1389 711 1389 Q934 1389 1056 1256.5 Q1178 1124 1178 885 Q1178 735 1136 580.5 Q1094 426 1015 289 Q936 152 802 64.5 Q668 -23 504 -23 Q221 -23 92 182 Z M360 891 Q360 780 444 714.5 Q528 649 664 649 Q854 649 1010 819 Q1014 856 1014 915 Q1014 1060 932 1148.5 Q850 1237 707 1237 Q560 1237 460 1133.5 Q360 1030 360 891 Z " />
<glyph glyph-name="colon" unicode="&#x3a;" horiz-adv-x="460" d="M33 84 Q33 133 68.5 169 Q104 205 156 205 Q199 205 228.5 174 Q258 143 258 100 Q258 49 222 14.5 Q186 -20 135 -20 Q92 -20 62.5 9.5 Q33 39 33 84 Z M209 883 Q209 934 245 969 Q281 1004 332 1004 Q375 1004 404.5 974 Q434 944 434 901 Q434 850 398 814 Q362 778 311 778 Q268 778 238.5 809 Q209 840 209 883 Z " />
<glyph glyph-name="semicolon" unicode="&#x3b;" horiz-adv-x="471" d="M-37 -180 Q100 -110 135 -8 L119 -8 Q82 -8 56.5 17.5 Q31 43 31 84 Q31 133 67.5 169 Q104 205 154 205 Q201 205 231.5 173 Q262 141 262 86 Q262 -8 193.5 -102.5 Q125 -197 27 -248 L-37 -180 Z M209 883 Q209 934 245 969 Q281 1004 332 1004 Q375 1004 404.5 974 Q434 944 434 901 Q434 850 398 814 Q362 778 311 778 Q268 778 238.5 809 Q209 840 209 883 Z " />
<glyph glyph-name="less" unicode="&#x3c;" horiz-adv-x="1021" d="M86 631 L113 739 L1114 1188 L1083 1053 L229 678 L918 307 L891 184 L86 631 Z " />
<glyph glyph-name="equal" unicode="&#x3d;" horiz-adv-x="1021" d="M43 432 L68 541 L971 541 L946 432 L43 432 Z M131 827 L156 936 L1059 936 L1034 827 L131 827 Z " />
<glyph glyph-name="greater" unicode="&#x3e;" horiz-adv-x="1021" d="M-12 184 L18 319 L874 690 L184 1065 L211 1188 L1014 739 L989 631 L-12 184 Z " />
<glyph glyph-name="question" unicode="&#x3f;" horiz-adv-x="946" d="M186 1219 Q366 1387 598 1386 Q778 1386 894 1303.5 Q1010 1221 1010 1087 Q1010 987 956.5 911.5 Q903 836 826.5 792 Q750 748 674 711 Q598 674 545 624.5 Q492 575 492 514 Q492 469 526 434 L389 379 Q342 440 342 524 Q342 606 392 667.5 Q442 729 514 767 L656 843 Q727 881 777 934 Q827 987 827 1059 Q827 1139 760.5 1187 Q694 1235 578 1235 Q396 1235 264 1104 L186 1219 Z M254 84 Q254 133 291 169 Q328 205 379 205 Q422 205 451.5 174 Q481 143 481 100 Q481 49 444.5 14.5 Q408 -20 356 -20 Q313 -20 283.5 9.5 Q254 39 254 84 Z " />
<glyph glyph-name="at" unicode="&#x40;" horiz-adv-x="1603" d="M113 500 Q113 828 357.5 1067.5 Q602 1307 926 1307 Q1211 1307 1391 1119.5 Q1571 932 1571 657 Q1571 432 1464.5 303 Q1358 174 1217 174 Q1135 174 1084.5 222 Q1034 270 1030 340 L1030 354 Q975 274 887 224 Q799 174 705 174 Q564 174 477.5 266 Q391 358 391 508 Q391 717 538.5 869.5 Q686 1022 872 1022 Q966 1022 1035 977 Q1104 932 1135 862 L1161 989 L1300 989 L1184 434 Q1180 409 1180 391 Q1180 342 1207.5 313.5 Q1235 285 1276 285 Q1354 285 1426.5 377 Q1499 469 1499 657 Q1499 911 1338.5 1074 Q1178 1237 920 1237 Q625 1237 403.5 1015 Q182 793 182 504 Q182 256 349 90 Q516 -76 770 -76 Q969 -76 1151 39 L1188 -14 Q987 -143 762 -143 Q483 -143 298 42.5 Q113 228 113 500 Z M539 516 Q539 416 594 352.5 Q649 289 748 289 Q924 289 1051 473 L1110 758 Q1090 815 1035.5 861 Q981 907 899 907 Q749 907 644 788.5 Q539 670 539 516 Z " />
<glyph glyph-name="A" unicode="A" horiz-adv-x="1347" d="M-92 0 L760 1366 L971 1366 L1219 0 L1034 0 L979 305 L299 305 L111 0 L-92 0 Z M383 455 L963 455 L836 1192 L383 455 Z " />
<glyph glyph-name="B" unicode="B" horiz-adv-x="1288" d="M49 0 L350 1366 L918 1366 Q1070 1366 1168 1278 Q1266 1190 1266 1053 Q1266 912 1172.5 806 Q1079 700 950 686 Q1036 663 1092.5 582.5 Q1149 502 1149 406 Q1149 240 1029 120 Q909 0 682 0 L49 0 Z M252 152 L678 152 Q817 152 896 230.5 Q975 309 975 418 Q975 508 915.5 565.5 Q856 623 756 623 L356 623 L252 152 Z M389 774 L813 774 Q952 774 1016.5 849 Q1081 924 1081 1028 Q1081 1108 1022 1161 Q963 1214 874 1214 L487 1214 L389 774 Z " />
<glyph glyph-name="C" unicode="C" horiz-adv-x="1384" d="M123 573 Q123 753 187.5 908 Q252 1063 358.5 1167.5 Q465 1272 604 1330.5 Q743 1389 891 1389 Q1090 1389 1233 1303 Q1376 1217 1450 1067 L1286 1004 Q1229 1121 1122.5 1179 Q1016 1237 883 1237 Q652 1237 477.5 1052.5 Q303 868 303 582 Q303 379 428 253 Q553 127 764 127 Q967 127 1130 285 L1257 188 Q1052 -25 754 -25 Q480 -25 301.5 140 Q123 305 123 573 Z " />
<glyph glyph-name="D" unicode="D" horiz-adv-x="1433" d="M49 0 L350 1366 L807 1366 Q1040 1366 1207 1200 Q1374 1034 1374 782 Q1374 639 1322 503 Q1270 367 1168.5 253 Q1067 139 897 69.5 Q727 0 514 0 L49 0 Z M252 152 L543 152 Q836 152 1016 333 Q1196 514 1196 774 Q1196 964 1076 1089 Q956 1214 774 1214 L487 1214 L252 152 Z " />
<glyph glyph-name="E" unicode="E" horiz-adv-x="1165" d="M49 0 L350 1366 L1245 1366 L1212 1214 L487 1214 L389 774 L1102 774 L1067 623 L356 623 L252 152 L977 152 L944 0 L49 0 Z " />
<glyph glyph-name="F" unicode="F" horiz-adv-x="1128" d="M49 0 L350 1366 L1245 1366 L1212 1214 L487 1214 L389 774 L1102 774 L1067 623 L356 623 L219 0 L49 0 Z " />
<glyph glyph-name="G" unicode="G" horiz-adv-x="1460" d="M123 573 Q123 923 350.5 1156 Q578 1389 903 1389 Q1089 1389 1228.5 1307 Q1368 1225 1442 1090 L1288 1020 Q1235 1122 1126.5 1179.5 Q1018 1237 883 1237 Q650 1237 476.5 1048.5 Q303 860 303 582 Q303 377 429 252 Q555 127 764 127 Q959 127 1124 272 L1186 551 L715 551 L748 702 L1389 702 L1278 203 Q1057 -24 754 -25 Q473 -25 298 141 Q123 307 123 573 Z " />
<glyph glyph-name="H" unicode="H" horiz-adv-x="1458" d="M49 0 L350 1366 L520 1366 L391 778 L1190 778 L1319 1366 L1489 1366 L1188 0 L1018 0 L1155 627 L356 627 L219 0 L49 0 Z " />
<glyph glyph-name="I" unicode="I" horiz-adv-x="489" d="M49 0 L350 1366 L520 1366 L219 0 L49 0 Z " />
<glyph glyph-name="J" unicode="J" horiz-adv-x="972" d="M-45 147 L57 270 Q137 127 315 127 Q438 127 516 204 Q594 281 625 414 L834 1366 L1004 1366 L793 412 Q697 -24 324 -25 Q205 -25 106.5 19 Q8 63 -45 147 Z " />
<glyph glyph-name="K" unicode="K" horiz-adv-x="1230" d="M49 0 L350 1366 L520 1366 L367 676 L1114 1366 L1337 1366 L625 719 L1087 0 L887 0 L498 623 L319 459 L219 0 L49 0 Z " />
<glyph glyph-name="L" unicode="L" horiz-adv-x="1009" d="M27 0 L328 1366 L498 1366 L229 152 L864 152 L831 0 L27 0 Z " />
<glyph glyph-name="M" unicode="M" horiz-adv-x="1656" d="M49 0 L350 1366 L588 1366 L778 313 L1436 1366 L1688 1366 L1386 0 L1217 0 L1470 1149 L754 0 L684 0 L473 1149 L219 0 L49 0 Z " />
<glyph glyph-name="N" unicode="N" horiz-adv-x="1449" d="M49 0 L350 1366 L524 1366 L1071 289 L1311 1366 L1481 1366 L1180 0 L1016 0 L463 1100 L219 0 L49 0 Z " />
<glyph glyph-name="O" unicode="O" horiz-adv-x="1566" d="M123 573 Q123 915 346 1152 Q569 1389 891 1389 Q1163 1389 1342.5 1229 Q1522 1069 1522 793 Q1522 449 1298.5 212 Q1075 -25 754 -25 Q482 -25 302.5 136 Q123 297 123 573 Z M303 582 Q303 369 434 248 Q565 127 764 127 Q1002 127 1171.5 314.5 Q1341 502 1341 782 Q1341 995 1210 1116 Q1079 1237 881 1237 Q641 1237 472 1050 Q303 863 303 582 Z " />
<glyph glyph-name="P" unicode="P" horiz-adv-x="1202" d="M49 0 L350 1366 L881 1366 Q1033 1366 1136 1261.5 Q1239 1157 1239 1014 Q1239 832 1108 687.5 Q977 543 715 543 L338 543 L219 0 L49 0 Z M371 694 L729 694 L727 694 Q883 694 972 782 Q1061 870 1061 999 Q1061 1087 995.5 1150.5 Q930 1214 834 1214 L487 1214 L371 694 Z " />
<glyph glyph-name="Q" unicode="Q" horiz-adv-x="1566" d="M123 573 Q123 915 346 1152 Q569 1389 891 1389 Q1163 1389 1342.5 1229 Q1522 1069 1522 793 Q1522 590 1438 417 Q1354 244 1210 131 L1294 12 L1159 -63 L1079 49 Q925 -25 754 -25 Q482 -25 302.5 136 Q123 297 123 573 Z M303 582 Q303 369 434 248 Q565 127 764 127 Q881 127 989 178 L827 408 L963 481 L1118 262 Q1341 459 1341 782 Q1341 995 1210 1116 Q1079 1237 881 1237 Q641 1237 472 1050 Q303 863 303 582 Z " />
<glyph glyph-name="R" unicode="R" horiz-adv-x="1247" d="M49 0 L350 1366 L852 1366 Q1008 1366 1123.5 1268.5 Q1239 1171 1239 1010 Q1239 820 1116 692.5 Q993 565 795 551 L1040 0 L852 0 L623 543 L338 543 L219 0 L49 0 Z M371 692 L727 692 L731 692 Q885 692 973 779 Q1061 866 1061 995 Q1061 1089 990.5 1151.5 Q920 1214 827 1214 L487 1214 L371 692 Z " />
<glyph glyph-name="S" unicode="S" horiz-adv-x="1200" d="M33 221 L150 342 Q222 242 340.5 184.5 Q459 127 600 127 Q747 127 824 205 Q901 283 901 381 Q901 442 851 491.5 Q801 541 725 571.5 Q649 602 562 641 Q475 680 399.5 719 Q324 758 273.5 828.5 Q223 899 223 989 Q223 1151 361.5 1270 Q500 1389 709 1389 Q865 1389 996.5 1330.5 Q1128 1272 1200 1171 L1085 1053 Q1017 1143 911 1190 Q805 1237 688 1237 Q569 1237 487.5 1170.5 Q406 1104 406 1014 Q406 946 475.5 895 Q545 844 645 805 Q745 766 844.5 721 Q944 676 1013.5 596 Q1083 516 1083 408 Q1083 234 949 104.5 Q815 -25 586 -25 Q406 -25 255.5 43.5 Q105 112 33 221 Z " />
<glyph glyph-name="T" unicode="T" horiz-adv-x="1167" d="M223 1214 L256 1366 L1292 1366 L1260 1214 L825 1214 L557 0 L387 0 L655 1214 L223 1214 Z " />
<glyph glyph-name="U" unicode="U" horiz-adv-x="1435" d="M156 430 Q156 479 166 530 L350 1366 L522 1366 L338 535 Q328 463 328 449 Q330 306 425 216.5 Q520 127 688 127 Q868 127 967.5 230.5 Q1067 334 1110 535 L1294 1366 L1466 1366 L1282 532 Q1223 262 1084.5 118.5 Q946 -25 688 -25 Q436 -25 296 98 Q156 221 156 430 Z " />
<glyph glyph-name="V" unicode="V" horiz-adv-x="1347" d="M209 1366 L395 1366 L596 186 L1317 1366 L1520 1366 L670 0 L459 0 L209 1366 Z " />
<glyph glyph-name="W" unicode="W" horiz-adv-x="1808" d="M219 1366 L403 1366 L455 227 L1018 1366 L1161 1366 L1223 227 L1776 1366 L1970 1366 L1278 0 L1094 0 L1036 1102 L492 0 L307 0 L219 1366 Z " />
<glyph glyph-name="X" unicode="X" horiz-adv-x="1335" d="M-86 0 L604 713 L246 1366 L440 1366 L733 823 L1247 1366 L1470 1366 L819 690 L1200 0 L1006 0 L690 578 L133 0 L-86 0 Z " />
<glyph glyph-name="Y" unicode="Y" horiz-adv-x="1282" d="M209 1366 L395 1366 L680 731 L1243 1366 L1454 1366 L743 578 L616 0 L446 0 L573 578 L209 1366 Z " />
<glyph glyph-name="Z" unicode="Z" horiz-adv-x="1198" d="M-12 0 L18 141 L1012 1214 L256 1214 L289 1366 L1276 1366 L1245 1225 L248 152 L1022 152 L989 0 L-12 0 Z " />
<glyph glyph-name="bracketleft" unicode="&#x5b;" horiz-adv-x="497" d="M-115 -389 L279 1389 L659 1389 L635 1276 L373 1276 L29 -276 L291 -276 L264 -389 L-115 -389 Z " />
<glyph glyph-name="backslash" unicode="&#x5c;" horiz-adv-x="606" d="M201 1407 L322 1407 L485 -41 L365 -41 L201 1407 Z " />
<glyph glyph-name="bracketright" unicode="&#x5d;" horiz-adv-x="497" d="M-162 -389 L-135 -276 L125 -276 L469 1276 L207 1276 L231 1389 L614 1389 L219 -389 L-162 -389 Z " />
<glyph glyph-name="asciicircum" unicode="&#x5e;" horiz-adv-x="884" d="M78 682 L575 1366 L692 1366 L885 682 L764 682 L614 1253 L211 682 L78 682 Z " />
<glyph glyph-name="underscore" unicode="&#x5f;" horiz-adv-x="1155" d="M-160 -195 L-133 -82 L1032 -82 L1006 -195 L-160 -195 Z " />
<glyph glyph-name="&amp;#x60;" unicode="&#x60;" horiz-adv-x="462" d="M207 1434 L367 1434 L604 1139 L487 1139 L207 1434 Z " />
<glyph glyph-name="&amp;#x2cb;" unicode="&#x2cb;" horiz-adv-x="462" d="M207 1434 L367 1434 L604 1139 L487 1139 L207 1434 Z " />
<glyph glyph-name="a" unicode="a" horiz-adv-x="1177" d="M82 383 Q82 637 226.5 825.5 Q371 1014 600 1014 Q713 1014 804 966 Q895 918 944 834 L979 989 L1133 989 L913 0 L760 0 L791 141 Q658 -25 465 -25 Q293 -25 187.5 84 Q82 193 82 383 Z M244 412 Q244 275 319.5 194 Q395 113 520 113 Q608 113 689 161 Q770 209 823 281 L920 717 Q881 787 802 832 Q723 877 621 877 Q457 877 350.5 737.5 Q244 598 244 412 Z " />
<glyph glyph-name="b" unicode="b" horiz-adv-x="1177" d="M43 0 L344 1366 L498 1366 L385 848 Q518 1014 711 1014 Q885 1014 989.5 905.5 Q1094 797 1094 606 Q1094 352 949.5 163.5 Q805 -25 575 -25 Q462 -25 371.5 23.5 Q281 72 231 156 L197 0 L43 0 Z M256 272 Q295 202 374 157.5 Q453 113 555 113 Q719 113 825.5 252 Q932 391 932 578 Q932 715 856 796 Q780 877 655 877 Q567 877 486.5 828.5 Q406 780 352 709 L256 272 Z " />
<glyph glyph-name="c" unicode="c" horiz-adv-x="1015" d="M82 418 Q82 664 245 839 Q408 1014 639 1014 Q899 1014 1010 829 L893 741 Q815 876 643 877 Q463 877 352.5 741.5 Q242 606 242 420 Q242 273 329 193 Q416 113 551 113 Q703 113 803 231 L889 127 Q742 -25 537 -25 Q334 -25 208 94 Q82 213 82 418 Z " />
<glyph glyph-name="d" unicode="d" horiz-adv-x="1177" d="M82 383 Q82 637 226.5 825.5 Q371 1014 600 1014 Q713 1014 804 966 Q895 918 944 834 L1063 1366 L1217 1366 L913 0 L760 0 L791 141 Q658 -25 465 -25 Q293 -25 187.5 84 Q82 193 82 383 Z M244 412 Q244 275 319.5 194 Q395 113 520 113 Q608 113 689 161 Q770 209 823 281 L920 717 Q881 787 802 832 Q723 877 621 877 Q457 877 350.5 737.5 Q244 598 244 412 Z " />
<glyph glyph-name="e" unicode="e" horiz-adv-x="1153" d="M82 414 Q82 662 244 838 Q406 1014 639 1014 Q834 1014 949.5 893 Q1065 772 1065 582 Q1065 521 1049 444 L244 444 Q240 428 240 397 Q240 274 328 188 Q416 102 575 102 Q741 102 860 201 L913 92 Q757 -25 565 -25 Q342 -25 212 95 Q82 215 82 414 Z M258 559 L918 559 L924 559 Q924 563 925 576.5 Q926 590 926 596 Q926 725 847 806 Q768 887 625 887 Q492 887 387.5 789.5 Q283 692 258 559 Z " />
<glyph glyph-name="f" unicode="f" horiz-adv-x="581" d="M86 0 L274 854 L111 854 L141 989 L305 989 L322 1065 Q396 1387 647 1386 Q782 1386 866 1303 L784 1208 Q739 1259 659 1260 Q518 1260 475 1065 L459 989 L659 989 L629 854 L428 854 L240 0 L86 0 Z " />
<glyph glyph-name="g" unicode="g" horiz-adv-x="1177" d="M-8 -233 L88 -129 Q188 -274 430 -274 Q692 -274 764 33 L793 158 Q662 -8 457 -8 Q291 -8 185.5 95.5 Q80 199 80 399 Q80 647 223.5 830.5 Q367 1014 596 1014 Q694 1014 790.5 963.5 Q887 913 942 834 L977 989 L1133 989 L918 33 Q822 -401 434 -401 Q131 -401 -8 -233 Z M242 424 Q242 287 316.5 207 Q391 127 518 127 Q600 127 682 172 Q764 217 821 287 L915 713 Q874 789 790.5 833 Q707 877 608 877 Q446 877 344 740.5 Q242 604 242 424 Z " />
<glyph glyph-name="h" unicode="h" horiz-adv-x="1130" d="M45 0 L346 1366 L498 1366 L383 846 Q555 1014 733 1014 Q866 1014 947 950.5 Q1028 887 1028 770 Q1028 727 1016 686 L866 0 L713 0 L856 651 Q866 692 866 719 Q866 877 662 877 Q508 877 356 721 L199 0 L45 0 Z " />
<glyph glyph-name="i" unicode="i" horiz-adv-x="460" d="M43 0 L262 989 L416 989 L197 0 L43 0 Z M287 1221 Q287 1272 323.5 1304.5 Q360 1337 403 1337 Q442 1337 470 1310.5 Q498 1284 498 1247 Q498 1196 461 1163 Q424 1130 381 1130 Q340 1130 313.5 1157 Q287 1184 287 1221 Z " />
<glyph glyph-name="j" unicode="j" horiz-adv-x="460" d="M-375 -315 L-299 -207 Q-246 -275 -160 -274 Q-17 -274 23 -96 L262 989 L416 989 L176 -96 Q141 -248 65.5 -324.5 Q-10 -401 -139 -401 Q-301 -401 -375 -315 Z M287 1221 Q287 1272 323.5 1304.5 Q360 1337 403 1337 Q442 1337 470 1310.5 Q498 1284 498 1247 Q498 1196 461 1163 Q424 1130 381 1130 Q340 1130 313.5 1157 Q287 1184 287 1221 Z " />
<glyph glyph-name="k" unicode="k" horiz-adv-x="1052" d="M43 0 L344 1366 L498 1366 L301 473 L928 989 L1130 989 L592 541 L913 0 L729 0 L467 451 L260 283 L197 0 L43 0 Z " />
<glyph glyph-name="l" unicode="l" horiz-adv-x="460" d="M43 0 L344 1366 L498 1366 L197 0 L43 0 Z " />
<glyph glyph-name="m" unicode="m" horiz-adv-x="1654" d="M43 0 L262 989 L416 989 L383 846 Q528 1014 694 1014 Q813 1014 883.5 947.5 Q954 881 954 817 L954 815 Q1112 1014 1292 1014 Q1401 1014 1476.5 949.5 Q1552 885 1552 770 Q1552 747 1542 686 L1391 0 L1237 0 L1384 664 Q1390 695 1391 719 Q1391 793 1342.5 835 Q1294 877 1223 877 Q1086 877 952 721 L793 0 L639 0 L786 664 Q794 699 795 727 Q795 795 750 836 Q705 877 623 877 Q492 877 356 721 L197 0 L43 0 Z " />
<glyph glyph-name="n" unicode="n" horiz-adv-x="1130" d="M43 0 L262 989 L416 989 L383 846 Q555 1014 733 1014 Q866 1014 947 950.5 Q1028 887 1028 770 Q1028 731 1016 686 L864 0 L713 0 L856 649 Q866 700 866 719 Q866 877 662 877 Q504 877 356 721 L197 0 L43 0 Z " />
<glyph glyph-name="o" unicode="o" horiz-adv-x="1171" d="M82 416 Q82 656 240.5 835 Q399 1014 633 1014 Q842 1014 963.5 893 Q1085 772 1085 575 Q1085 333 926.5 154 Q768 -25 535 -25 Q326 -25 204 96 Q82 217 82 416 Z M244 420 Q244 279 321.5 196 Q399 113 539 113 Q703 113 813.5 251 Q924 389 924 569 Q924 710 846 793.5 Q768 877 629 877 Q465 877 354.5 738.5 Q244 600 244 420 Z " />
<glyph glyph-name="p" unicode="p" horiz-adv-x="1171" d="M-41 -377 L262 989 L416 989 L385 848 Q518 1014 711 1014 Q885 1014 989.5 905.5 Q1094 797 1094 606 Q1094 352 949.5 163.5 Q805 -25 575 -25 Q462 -25 371.5 23.5 Q281 72 231 156 L113 -377 L-41 -377 Z M256 272 Q295 202 374 157.5 Q453 113 555 113 Q719 113 825.5 252 Q932 391 932 578 Q932 715 856 796 Q780 877 655 877 Q567 877 486.5 828.5 Q406 780 352 709 L256 272 Z " />
<glyph glyph-name="q" unicode="q" horiz-adv-x="1171" d="M82 383 Q82 637 226.5 825.5 Q371 1014 600 1014 Q713 1014 804 966 Q895 918 944 834 L979 989 L1133 989 L829 -377 L676 -377 L791 141 Q658 -25 465 -25 Q293 -25 187.5 84 Q82 193 82 383 Z M244 412 Q244 275 319.5 194 Q395 113 520 113 Q608 113 689 161 Q770 209 823 281 L920 717 Q881 787 802 832 Q723 877 621 877 Q457 877 350.5 737.5 Q244 598 244 412 Z " />
<glyph glyph-name="r" unicode="r" horiz-adv-x="675" d="M43 0 L262 989 L416 989 L381 840 Q459 928 544 970 Q629 1012 750 1012 L715 852 Q690 860 637 860 Q555 860 478 813 Q401 766 350 698 L197 0 L43 0 Z " />
<glyph glyph-name="s" unicode="s" horiz-adv-x="952" d="M6 152 L104 256 Q147 193 237.5 146.5 Q328 100 432 100 Q534 100 596.5 151.5 Q659 203 659 274 Q659 325 606 364 Q553 403 476 431 Q399 459 322.5 490.5 Q246 522 192.5 577.5 Q139 633 139 709 Q139 838 239.5 926 Q340 1014 514 1014 Q635 1014 737.5 968 Q840 922 893 852 L803 752 Q768 809 684 849 Q600 889 506 889 Q410 889 351.5 846 Q293 803 293 737 Q293 690 346 653 Q399 616 476 589.5 Q553 563 630 530.5 Q707 498 760 439.5 Q813 381 813 301 Q813 166 708.5 70.5 Q604 -25 424 -25 Q147 -24 6 152 Z " />
<glyph glyph-name="t" unicode="t" horiz-adv-x="602" d="M100 854 L131 989 L295 989 L354 1260 L506 1260 L446 989 L649 989 L618 854 L418 854 L281 244 Q279 234 279 205 Q279 113 377 113 Q430 113 471 145 L487 23 Q426 -24 342 -25 Q115 -25 115 156 Q115 181 121 213 L264 854 L100 854 Z " />
<glyph glyph-name="u" unicode="u" horiz-adv-x="1128" d="M100 219 Q100 246 111 303 L262 989 L416 989 L272 340 Q262 295 262 272 Q262 112 467 113 Q623 113 770 268 L930 989 L1083 989 L864 0 L711 0 L743 143 Q571 -25 395 -25 Q260 -25 180 38.5 Q100 102 100 219 Z " />
<glyph glyph-name="v" unicode="v" horiz-adv-x="1003" d="M115 989 L276 989 L424 178 L934 989 L1106 989 L475 0 L307 0 L115 989 Z " />
<glyph glyph-name="w" unicode="w" horiz-adv-x="1503" d="M133 989 L289 989 L352 201 L788 989 L922 989 L1006 201 L1421 989 L1589 989 L1055 0 L899 0 L817 795 L383 0 L229 0 L133 989 Z " />
<glyph glyph-name="x" unicode="x" horiz-adv-x="997" d="M-86 0 L403 508 L156 989 L324 989 L516 612 L874 989 L1059 989 L592 508 L862 0 L692 0 L485 406 L98 0 L-86 0 Z " />
<glyph glyph-name="y" unicode="y" horiz-adv-x="1003" d="M-94 -379 L-41 -242 Q-4 -258 57 -258 Q137 -258 203 -160 L303 -6 L115 989 L276 989 L424 178 L934 989 L1106 989 L344 -201 Q219 -402 37 -401 Q-39 -402 -94 -379 Z " />
<glyph glyph-name="z" unicode="z" horiz-adv-x="966" d="M-4 0 L20 121 L721 854 L184 854 L215 989 L961 989 L934 872 L229 135 L778 135 L750 0 L-4 0 Z " />
<glyph glyph-name="braceleft" unicode="&#x7b;" horiz-adv-x="534" d="M-27 -170 Q-27 -139 -20 -115 L74 307 Q78 332 78 342 Q78 389 56.5 419 Q35 449 -2 449 L23 551 Q129 551 160 692 L254 1112 Q285 1249 367 1319 Q449 1389 569 1389 L696 1389 L670 1276 L545 1276 Q479 1276 434 1234 Q389 1192 373 1114 L274 668 Q239 523 141 487 Q200 456 201 377 Q201 340 193 307 L100 -113 Q96 -138 96 -156 Q96 -209 129 -242.5 Q162 -276 213 -276 L326 -276 L301 -389 L203 -389 Q111 -389 42 -327.5 Q-27 -266 -27 -170 Z " />
<glyph glyph-name="bar" unicode="&#x7c;" horiz-adv-x="432" d="M201 -41 L201 1407 L313 1407 L313 -41 L201 -41 Z " />
<glyph glyph-name="braceright" unicode="&#x7d;" horiz-adv-x="534" d="M-164 -389 L-139 -276 L-12 -276 Q54 -276 98.5 -234.5 Q143 -193 160 -115 L258 332 Q289 475 391 512 Q332 543 332 623 Q332 660 340 692 L432 1112 Q436 1137 436 1155 Q436 1208 402.5 1242 Q369 1276 317 1276 L205 1276 L231 1389 L330 1389 Q422 1389 490.5 1327.5 Q559 1266 559 1169 Q559 1142 551 1114 L459 692 Q455 667 455 657 Q455 612 475.5 581.5 Q496 551 532 551 L510 449 Q404 449 373 307 L279 -113 Q248 -250 165 -319.5 Q82 -389 -39 -389 L-164 -389 Z " />
<glyph glyph-name="asciitilde" unicode="&#x7e;" horiz-adv-x="1030" d="M139 879 Q245 1364 504 1364 Q582 1364 626 1324 Q670 1284 682 1225.5 Q694 1167 702.5 1110 Q711 1053 733.5 1013 Q756 973 803 973 Q879 973 944.5 1080.5 Q1010 1188 1051 1366 L1163 1354 Q1050 867 797 866 Q719 866 675 906 Q631 946 618.5 1003.5 Q606 1061 597 1118.5 Q588 1176 565.5 1215.5 Q543 1255 496 1255 Q422 1255 357.5 1149.5 Q293 1044 250 864 L139 879 Z " />
<glyph glyph-name="uni00A0" unicode="&#xa0;" horiz-adv-x="530" d="" />
<glyph glyph-name="exclamdown" unicode="&#xa1;" horiz-adv-x="471" d="M-55 -377 L195 606 L322 606 L137 -377 L-55 -377 Z M209 889 Q209 940 245 975 Q281 1010 332 1010 Q375 1010 404.5 980 Q434 950 434 907 Q434 856 398 820 Q362 784 311 784 Q268 784 238.5 815 Q209 846 209 889 Z " />
<glyph glyph-name="cent" unicode="&#xa2;" horiz-adv-x="1015" d="M82 418 Q82 660 240.5 835 Q399 1010 629 1014 L662 1157 L782 1157 L748 1004 Q924 971 1010 829 L893 741 Q838 837 717 868 L549 113 L551 113 Q703 113 803 231 L889 127 Q742 -25 537 -25 L518 -25 L479 -205 L358 -205 L401 -8 Q254 29 168 139.5 Q82 250 82 418 Z M242 420 Q242 307 293 233.5 Q344 160 432 131 L598 872 Q436 854 339 724 Q242 594 242 420 Z " />
<glyph glyph-name="sterling" unicode="&#xa3;" horiz-adv-x="1060" d="M8 115 Q155 174 255.5 282.5 Q356 391 356 502 Q356 516 352 549 L51 549 L74 659 L311 659 Q303 675 275.5 720.5 Q248 766 234.5 790.5 Q221 815 209 859 Q197 903 197 946 Q197 1122 343 1254 Q489 1386 694 1386 Q844 1386 963.5 1319.5 Q1083 1253 1116 1143 L963 1075 Q945 1149 871 1196 Q797 1243 700 1243 Q569 1243 475 1157 Q381 1071 381 932 Q381 879 397.5 833.5 Q414 788 445.5 736 Q477 684 487 659 L788 659 L764 549 L516 549 L516 532 Q516 432 447.5 339 Q379 246 293 193 Q336 209 389 209 Q457 209 557 167 Q657 125 715 125 Q817 125 903 207 L944 70 Q838 -26 705 -27 Q611 -27 483.5 20.5 Q356 68 276 68 Q178 68 41 -14 L8 115 Z " />
<glyph glyph-name="currency" unicode="&#xa4;" horiz-adv-x="1069" d="M23 283 L180 412 Q117 527 117 633 Q117 828 281 987 L205 1087 L270 1141 L350 1042 Q473 1130 623 1130 Q789 1130 915 1014 L1075 1145 L1126 1083 L967 952 Q1030 848 1030 731 Q1030 545 866 377 L944 279 L874 223 L799 324 Q674 234 528 233 Q358 233 231 354 L70 219 L23 283 Z M217 645 Q217 506 306 419 Q395 332 535 332 Q693 332 811.5 447.5 Q930 563 930 719 Q930 858 841 945 Q752 1032 612 1032 Q454 1032 335.5 916.5 Q217 801 217 645 Z " />
<glyph glyph-name="yen" unicode="&#xa5;" horiz-adv-x="1282" d="M-10 250 L14 358 L530 358 L580 578 L61 578 L86 684 L530 684 L215 1366 L401 1366 L686 731 L1249 1366 L1460 1366 L846 684 L1278 684 L1255 578 L750 578 L700 358 L1206 358 L1182 250 L678 250 L623 0 L453 0 L508 250 L-10 250 Z " />
<glyph glyph-name="brokenbar" unicode="&#xa6;" horiz-adv-x="432" d="M201 -41 L201 606 L313 606 L313 -41 L201 -41 Z M201 760 L201 1407 L313 1407 L313 760 L201 760 Z " />
<glyph glyph-name="section" unicode="&#xa7;" horiz-adv-x="958" d="M-43 0 L55 94 Q106 26 197.5 -12.5 Q289 -51 395 -51 Q495 -51 560 2 Q625 55 625 133 Q625 188 571.5 228 Q518 268 443.5 296 Q369 324 293 355.5 Q217 387 164 444.5 Q111 502 111 584 Q111 686 188.5 763 Q266 840 408 864 Q224 940 223 1090 Q223 1211 323.5 1298.5 Q424 1386 592 1386 Q860 1386 991 1233 L901 1149 Q805 1272 598 1272 Q500 1272 437.5 1225 Q375 1178 375 1108 Q375 1053 428 1014 Q481 975 558 948.5 Q635 922 710.5 891 Q786 860 839.5 801.5 Q893 743 893 659 Q893 561 827.5 481 Q762 401 639 367 Q780 289 780 156 Q780 25 674.5 -70.5 Q569 -166 397 -166 Q111 -166 -43 0 Z M336 735.5 Q266 682 266 612.5 Q266 543 324.5 503 Q383 463 516 418 Q629 449 682 506 Q735 563 735 627 Q735 695 684 735.5 Q633 776 543 807 Q406 789 336 735.5 Z " />
<glyph glyph-name="dieresis" unicode="&#xa8;" horiz-adv-x="557" d="M135 1227 Q135 1268 167 1299.5 Q199 1331 242 1331 Q277 1331 301.5 1306.5 Q326 1282 326 1247 Q326 1206 293 1174.5 Q260 1143 219 1143 Q184 1143 159.5 1167.5 Q135 1192 135 1227 Z M557 1227 Q557 1268 589 1299.5 Q621 1331 664 1331 Q699 1331 723.5 1306.5 Q748 1282 748 1247 Q748 1206 716 1174.5 Q684 1143 641 1143 Q606 1143 581.5 1167.5 Q557 1192 557 1227 Z " />
<glyph glyph-name="copyright" unicode="&#xa9;" horiz-adv-x="1593" d="M338 184 Q131 391 131 684 Q131 977 337 1184 Q543 1391 835.5 1391 Q1128 1391 1336 1184 Q1544 977 1544 684 Q1544 391 1336 184 Q1128 -23 836 -23 Q545 -23 338 184 Z M195 684 Q195 420 383 230.5 Q571 41 836 41 Q1102 41 1291.5 230.5 Q1481 420 1481 684 Q1481 950 1291.5 1138.5 Q1102 1327 836 1327 Q572 1327 383.5 1138.5 Q195 950 195 684 Z M406 629 Q406 834 553 978 Q700 1122 889 1122 Q1108 1122 1208 958 L1145 913 Q1069 1054 887 1055 Q733 1055 607 932 Q481 809 481 631 Q481 498 569 406.5 Q657 315 799 315 Q938 315 1034 412 L1075 354 Q948 248 799 248 Q619 248 512.5 356.5 Q406 465 406 629 Z " />
<glyph glyph-name="ordfeminine" unicode="&#xaa;" horiz-adv-x="839" d="M178 926 Q178 1090 278.5 1208.5 Q379 1327 526 1327 Q686 1327 758 1217 L778 1311 L895 1311 L754 668 L635 668 L655 762 Q563 651 436 651 Q325 651 251.5 723 Q178 795 178 926 Z M301 938 Q301 846 349 797 Q397 748 479 748 Q588 748 676 848 L741 1141 Q714 1182 662 1207.5 Q610 1233 549 1233 Q447 1233 374 1145 Q301 1057 301 938 Z " />
<glyph glyph-name="guillemotleft" unicode="&#xab;" horiz-adv-x="899" d="M59 498 L469 860 L631 860 L213 487 L451 129 L305 129 L59 498 Z M354 498 L764 860 L926 860 L508 487 L745 129 L600 129 L354 498 Z " />
<glyph glyph-name="logicalnot" unicode="&#xac;" horiz-adv-x="1032" d="M131 827 L156 936 L1059 936 L946 432 L834 432 L922 827 L131 827 Z " />
<glyph glyph-name="uni00AD" unicode="&#xad;" horiz-adv-x="614" d="M45 428 L74 563 L565 563 L537 428 L45 428 Z " />
<glyph glyph-name="registered" unicode="&#xae;" horiz-adv-x="1011" d="M298 645 Q172 772 172 952.5 Q172 1133 299 1259.5 Q426 1386 606 1386 Q786 1386 913 1260.5 Q1040 1135 1040 952 Q1040 772 912 645 Q784 518 604 518 Q424 518 298 645 Z M231 952 Q231 798 340 688 Q449 578 604.5 578 Q760 578 870.5 688.5 Q981 799 981 952 Q981 1110 870.5 1218.5 Q760 1327 604 1327 Q446 1327 338.5 1218.5 Q231 1110 231 952 Z M385 702 L494 1200 L682 1200 Q743 1200 784 1164 Q825 1128 825 1069 Q825 999 773 950 Q721 901 662 901 L752 702 L674 702 L588 899 L494 899 L451 702 L385 702 Z M506 958 L645 958 Q692 958 724 988 Q756 1018 756 1063 Q756 1100 732.5 1121.5 Q709 1143 672 1143 L547 1143 L506 958 Z " />
<glyph glyph-name="&amp;#xaf;" unicode="&#xaf;" horiz-adv-x="743" d="M158 1210 L180 1309 L922 1309 L899 1210 L158 1210 Z " />
<glyph glyph-name="&amp;#x203e;" unicode="&#x203e;" horiz-adv-x="743" d="M158 1210 L180 1309 L922 1309 L899 1210 L158 1210 Z " />
<glyph glyph-name="degree" unicode="&#xb0;" horiz-adv-x="593" d="M188 1137 Q188 1239 261 1312.5 Q334 1386 436 1386 Q540 1386 614 1312.5 Q688 1239 688 1137 Q688 1033 614.5 960 Q541 887 436 887 Q334 887 261 960 Q188 1033 188 1137 Z M287 1137 Q287 1074 330 1030.5 Q373 987 434 987 Q497 987 543.5 1031 Q590 1075 590 1136.5 Q590 1198 545 1243 Q500 1288 436 1288 Q375 1288 331 1243 Q287 1198 287 1137 Z " />
<glyph glyph-name="plusminus" unicode="&#xb1;" horiz-adv-x="1021" d="M-51 0 L-29 109 L874 109 L852 0 L-51 0 Z M94 664 L119 770 L512 770 L604 1194 L723 1194 L629 770 L1022 770 L997 664 L604 664 L508 227 L391 227 L487 664 L94 664 Z " />
<glyph glyph-name="uni00B2" unicode="&#xb2;" horiz-adv-x="794" d="M182 862 L205 963 Q524 1156 653 1258 Q782 1360 782 1464 Q782 1525 732 1559 Q682 1593 608 1593 Q467 1593 379 1499 L322 1579 Q437 1694 612 1694 Q733 1694 820 1637.5 Q907 1581 907 1470 Q907 1347 777 1232.5 Q647 1118 389 963 L801 963 L780 862 L182 862 Z " />
<glyph glyph-name="uni00B3" unicode="&#xb3;" horiz-adv-x="794" d="M205 997 L287 1069 Q367 948 528 948 Q612 948 661.5 995 Q711 1042 711 1112 Q711 1165 654.5 1199 Q598 1233 506 1233 Q459 1233 444 1231 L467 1333 Q524 1329 592 1329 Q678 1329 729 1366 Q780 1403 780 1468 Q780 1525 724 1559 Q668 1593 590 1593 Q471 1593 369 1505 L322 1585 Q441 1694 598 1694 Q731 1694 818 1639.5 Q905 1585 905 1485 Q905 1395 841.5 1337.5 Q778 1280 676 1272 Q742 1260 788 1212.5 Q834 1165 834 1096 Q834 998 752 923 Q670 848 532 848 Q419 848 333.5 886.5 Q248 925 205 997 Z " />
<glyph glyph-name="acute" unicode="&#xb4;" horiz-adv-x="462" d="M137 1139 L506 1434 L670 1434 L258 1139 L137 1139 Z " />
<glyph glyph-name="&amp;#xb5;" unicode="&#xb5;" horiz-adv-x="1128" d="M-41 -377 L262 989 L416 989 L262 299 Q259 277 260 258 Q260 187 296 153 Q342 109 442 109 Q526 109 616.5 154 Q707 199 768 262 L930 989 L1083 989 L864 0 L711 0 L741 139 Q663 69 560 22 Q457 -25 352 -25 Q260 -25 197 4 L113 -377 L-41 -377 Z " />
<glyph glyph-name="&amp;#x3bc;" unicode="&#x3bc;" horiz-adv-x="1128" d="M-41 -377 L262 989 L416 989 L262 299 Q259 277 260 258 Q260 187 296 153 Q342 109 442 109 Q526 109 616.5 154 Q707 199 768 262 L930 989 L1083 989 L864 0 L711 0 L741 139 Q663 69 560 22 Q457 -25 352 -25 Q260 -25 197 4 L113 -377 L-41 -377 Z " />
<glyph glyph-name="paragraph" unicode="&#xb6;" horiz-adv-x="919" d="M162 981 Q162 1131 277.5 1248.5 Q393 1366 559 1366 L965 1366 L616 -205 L524 -205 L854 1274 L672 1274 L342 -205 L250 -205 L442 662 Q325 662 243.5 753 Q162 844 162 981 Z " />
<glyph glyph-name="&amp;#xb7;" unicode="&#xb7;" horiz-adv-x="473" d="M123 492 Q123 543 159 578.5 Q195 614 246 614 Q289 614 318.5 583.5 Q348 553 348 510 Q348 459 312 424 Q276 389 225 389 Q182 389 152.5 419 Q123 449 123 492 Z " />
<glyph glyph-name="&amp;#x2219;" unicode="&#x2219;" horiz-adv-x="473" d="M123 492 Q123 543 159 578.5 Q195 614 246 614 Q289 614 318.5 583.5 Q348 553 348 510 Q348 459 312 424 Q276 389 225 389 Q182 389 152.5 419 Q123 449 123 492 Z " />
<glyph glyph-name="cedilla" unicode="&#xb8;" horiz-adv-x="419" d="M-182 -313 L-127 -240 Q-59 -312 43 -311 Q102 -311 135 -284.5 Q168 -258 168 -215 Q168 -154 94 -154 Q51 -154 20 -188 L-39 -150 L63 23 L156 23 L74 -113 Q99 -90 141 -90 Q194 -90 227 -122 Q260 -154 260 -209 Q260 -291 198.5 -341 Q137 -391 39 -391 Q-100 -391 -182 -313 Z " />
<glyph glyph-name="uni00B9" unicode="&#xb9;" horiz-adv-x="481" d="M238 1456 L510 1681 L618 1681 L438 862 L315 862 L457 1513 L297 1378 L238 1456 Z " />
<glyph glyph-name="ordmasculine" unicode="&#xba;" horiz-adv-x="829" d="M182 944 Q182 1102 291.5 1214.5 Q401 1327 555 1327 Q694 1327 778 1246 Q862 1165 862 1034 Q862 876 753.5 763.5 Q645 651 489 651 Q350 651 266 732 Q182 813 182 944 Z M305 940 Q305 856 356.5 803 Q408 750 492 750 Q603 750 672 836 Q741 922 741 1036 Q741 1122 690 1174.5 Q639 1227 553 1227 Q442 1227 373.5 1142 Q305 1057 305 940 Z " />
<glyph glyph-name="guillemotright" unicode="&#xbb;" horiz-adv-x="899" d="M-23 129 L395 502 L158 860 L303 860 L549 492 L139 129 L-23 129 Z M272 129 L690 502 L453 860 L598 860 L844 492 L434 129 L272 129 Z " />
<glyph glyph-name="onequarter" unicode="&#xbc;" horiz-adv-x="1576" d="M113 0 L1286 1366 L1399 1366 L223 0 L113 0 Z M168 1141 L440 1366 L549 1366 L369 547 L246 547 L387 1198 L227 1063 L168 1141 Z M795 205 L813 297 L1284 819 L1454 819 L1339 305 L1456 305 L1436 205 L1319 205 L1274 0 L1151 0 L1196 205 L795 205 Z M940 305 L1217 305 L1307 702 L940 305 Z " />
<glyph glyph-name="onehalf" unicode="&#xbd;" horiz-adv-x="1652" d="M113 0 L1286 1366 L1399 1366 L223 0 L113 0 Z M168 1141 L440 1366 L549 1366 L369 547 L246 547 L387 1198 L227 1063 L168 1141 Z M850 0 L872 100 Q1191 293 1320.5 395.5 Q1450 498 1450 602 Q1450 663 1400 697 Q1350 731 1276 731 Q1135 731 1047 637 L989 717 Q1104 832 1280 831 Q1401 831 1488 775 Q1575 719 1575 608 Q1575 485 1445 370.5 Q1315 256 1057 100 L1468 100 L1448 0 L850 0 Z " />
<glyph glyph-name="threequarters" unicode="&#xbe;" horiz-adv-x="1798" d="M135 682 L217 754 Q297 633 459 633 Q543 633 592 680 Q641 727 641 797 Q641 850 584.5 884 Q528 918 436 918 Q389 918 375 915 L397 1018 Q454 1014 522 1014 Q608 1014 659.5 1050.5 Q711 1087 711 1153 Q711 1210 654.5 1244 Q598 1278 520 1278 Q401 1278 299 1190 L252 1270 Q371 1379 528 1378 Q661 1378 748.5 1324 Q836 1270 836 1169 Q836 1079 772.5 1022 Q709 965 606 956 Q672 944 718 897 Q764 850 764 780 Q764 682 682 607 Q600 532 463 532 Q350 532 264 571 Q178 610 135 682 Z M334 0 L1507 1366 L1620 1366 L444 0 L334 0 Z M1018 205 L1036 297 L1507 819 L1677 819 L1563 305 L1679 305 L1659 205 L1542 205 L1497 0 L1374 0 L1419 205 L1018 205 Z M1163 305 L1440 305 L1530 702 L1163 305 Z " />
<glyph glyph-name="questiondown" unicode="&#xbf;" horiz-adv-x="806" d="M-68 -98 Q-68 -12 -29 55.5 Q10 123 67.5 162 Q125 201 192.5 240 Q260 279 317.5 307.5 Q375 336 414 379 Q453 422 453 475 Q453 520 418 555 L553 610 Q602 542 602 465 Q602 383 552 321.5 Q502 260 430 221 L287 145 Q215 108 165 55 Q115 2 115 -70 Q115 -150 181.5 -199 Q248 -248 365 -248 Q543 -248 680 -115 L756 -229 Q580 -397 344 -397 Q164 -397 48 -314 Q-68 -231 -68 -98 Z M461 889 Q461 940 498 975 Q535 1010 586 1010 Q629 1010 658.5 979 Q688 948 688 905 Q688 856 651 820 Q614 784 565 784 Q520 784 490.5 815 Q461 846 461 889 Z " />
<glyph glyph-name="Agrave" unicode="&#xc0;" horiz-adv-x="1347" d="M-92 0 L760 1366 L971 1366 L1219 0 L1034 0 L979 305 L299 305 L111 0 L-92 0 Z M383 455 L963 455 L836 1192 L383 455 Z M633 1786 L793 1786 L1030 1491 L913 1491 L633 1786 Z " />
<glyph glyph-name="Aacute" unicode="&#xc1;" horiz-adv-x="1347" d="M-92 0 L760 1366 L971 1366 L1219 0 L1034 0 L979 305 L299 305 L111 0 L-92 0 Z M383 455 L963 455 L836 1192 L383 455 Z M756 1491 L1124 1786 L1288 1786 L877 1491 L756 1491 Z " />
<glyph glyph-name="Acircumflex" unicode="&#xc2;" horiz-adv-x="1347" d="M-92 0 L760 1366 L971 1366 L1219 0 L1034 0 L979 305 L299 305 L111 0 L-92 0 Z M383 455 L963 455 L836 1192 L383 455 Z M625 1491 L885 1786 L1032 1786 L1167 1491 L1067 1491 L944 1708 L733 1491 L625 1491 Z " />
<glyph glyph-name="Atilde" unicode="&#xc3;" horiz-adv-x="1347" d="M-92 0 L760 1366 L971 1366 L1219 0 L1034 0 L979 305 L299 305 L111 0 L-92 0 Z M383 455 L963 455 L836 1192 L383 455 Z M575 1499 Q630 1773 809 1774 Q860 1774 895 1744 Q930 1714 945.5 1679.5 Q961 1645 988.5 1615 Q1016 1585 1053 1585 Q1139 1585 1180 1761 L1274 1761 Q1215 1487 1038 1487 Q987 1487 952.5 1516.5 Q918 1546 902.5 1581 Q887 1616 860.5 1645.5 Q834 1675 797 1675 Q709 1675 670 1499 L575 1499 Z " />
<glyph glyph-name="Adieresis" unicode="&#xc4;" horiz-adv-x="1347" d="M-92 0 L760 1366 L971 1366 L1219 0 L1034 0 L979 305 L299 305 L111 0 L-92 0 Z M383 455 L963 455 L836 1192 L383 455 Z M610 1573 Q610 1614 642 1645.5 Q674 1677 717 1677 Q752 1677 776.5 1652.5 Q801 1628 801 1593 Q801 1552 768 1520.5 Q735 1489 694 1489 Q659 1489 634.5 1513.5 Q610 1538 610 1573 Z M1032 1573 Q1032 1614 1064 1645.5 Q1096 1677 1139 1677 Q1174 1677 1198.5 1652.5 Q1223 1628 1223 1593 Q1223 1552 1191 1520.5 Q1159 1489 1116 1489 Q1081 1489 1056.5 1513.5 Q1032 1538 1032 1573 Z " />
<glyph glyph-name="Aring" unicode="&#xc5;" horiz-adv-x="1347" d="M-92 0 L760 1366 L971 1366 L1219 0 L1034 0 L979 305 L299 305 L111 0 L-92 0 Z M383 455 L963 455 L836 1192 L383 455 Z M719 1599 Q719 1689 784.5 1755 Q850 1821 940 1821 Q1022 1821 1072 1770.5 Q1122 1720 1122 1638 Q1122 1548 1056.5 1482.5 Q991 1417 901 1417 Q821 1417 770 1468 Q719 1519 719 1599 Z M801 1608 Q801 1561 830.5 1530 Q860 1499 907 1499 Q960 1499 1000 1538 Q1040 1577 1040 1630 Q1040 1679 1011.5 1709 Q983 1739 936 1739 Q883 1739 842 1700 Q801 1661 801 1608 Z " />
<glyph glyph-name="AE" unicode="&#xc6;" horiz-adv-x="1941" d="M-96 0 L1057 1366 L2019 1366 L1987 1214 L1262 1214 L1163 774 L1876 774 L1841 623 L1130 623 L1026 152 L1751 152 L1718 0 L823 0 L889 305 L360 305 L106 0 L-96 0 Z M475 455 L924 455 L1083 1180 L475 455 Z " />
<glyph glyph-name="Ccedilla" unicode="&#xc7;" horiz-adv-x="1384" d="M123 573 Q123 753 187.5 908 Q252 1063 358.5 1167.5 Q465 1272 604 1330.5 Q743 1389 891 1389 Q1090 1389 1233 1303 Q1376 1217 1450 1067 L1286 1004 Q1229 1121 1122.5 1179 Q1016 1237 883 1237 Q652 1237 477.5 1052.5 Q303 868 303 582 Q303 379 428 253 Q553 127 764 127 Q967 127 1130 285 L1257 188 Q1052 -25 754 -25 Q727 -25 715 -23 L662 -113 Q687 -90 729 -90 Q782 -90 815 -122 Q848 -154 848 -209 Q848 -291 786.5 -341 Q725 -391 627 -391 Q488 -391 406 -313 L461 -240 Q529 -312 631 -311 Q690 -311 723 -284.5 Q756 -258 756 -215 Q756 -154 682 -154 Q639 -154 608 -188 L549 -150 L629 -14 Q402 23 262.5 180 Q123 337 123 573 Z " />
<glyph glyph-name="Egrave" unicode="&#xc8;" horiz-adv-x="1165" d="M49 0 L350 1366 L1245 1366 L1212 1214 L487 1214 L389 774 L1102 774 L1067 623 L356 623 L252 152 L977 152 L944 0 L49 0 Z M565 1786 L725 1786 L963 1491 L846 1491 L565 1786 Z " />
<glyph glyph-name="Eacute" unicode="&#xc9;" horiz-adv-x="1165" d="M49 0 L350 1366 L1245 1366 L1212 1214 L487 1214 L389 774 L1102 774 L1067 623 L356 623 L252 152 L977 152 L944 0 L49 0 Z M686 1491 L1055 1786 L1219 1786 L807 1491 L686 1491 Z " />
<glyph glyph-name="Ecircumflex" unicode="&#xca;" horiz-adv-x="1165" d="M49 0 L350 1366 L1245 1366 L1212 1214 L487 1214 L389 774 L1102 774 L1067 623 L356 623 L252 152 L977 152 L944 0 L49 0 Z M553 1491 L813 1786 L961 1786 L1096 1491 L995 1491 L872 1708 L662 1491 L553 1491 Z " />
<glyph glyph-name="Edieresis" unicode="&#xcb;" horiz-adv-x="1165" d="M49 0 L350 1366 L1245 1366 L1212 1214 L487 1214 L389 774 L1102 774 L1067 623 L356 623 L252 152 L977 152 L944 0 L49 0 Z M541 1573 Q541 1614 572.5 1645.5 Q604 1677 647 1677 Q682 1677 706.5 1652.5 Q731 1628 731 1593 Q731 1552 698.5 1520.5 Q666 1489 625 1489 Q590 1489 565.5 1513.5 Q541 1538 541 1573 Z M963 1573 Q963 1614 994.5 1645.5 Q1026 1677 1069 1677 Q1104 1677 1128.5 1652.5 Q1153 1628 1153 1593 Q1153 1552 1121.5 1520.5 Q1090 1489 1047 1489 Q1012 1489 987.5 1513.5 Q963 1538 963 1573 Z " />
<glyph glyph-name="Igrave" unicode="&#xcc;" horiz-adv-x="489" d="M49 0 L350 1366 L520 1366 L219 0 L49 0 Z M201 1786 L360 1786 L598 1491 L481 1491 L201 1786 Z " />
<glyph glyph-name="Iacute" unicode="&#xcd;" horiz-adv-x="489" d="M49 0 L350 1366 L520 1366 L219 0 L49 0 Z M328 1491 L696 1786 L860 1786 L449 1491 L328 1491 Z " />
<glyph glyph-name="Icircumflex" unicode="&#xce;" horiz-adv-x="489" d="M49 0 L350 1366 L520 1366 L219 0 L49 0 Z M193 1491 L453 1786 L600 1786 L735 1491 L635 1491 L512 1708 L301 1491 L193 1491 Z " />
<glyph glyph-name="Idieresis" unicode="&#xcf;" horiz-adv-x="489" d="M49 0 L350 1366 L520 1366 L219 0 L49 0 Z M178 1573 Q178 1614 210 1645.5 Q242 1677 285 1677 Q320 1677 344.5 1652.5 Q369 1628 369 1593 Q369 1552 336 1520.5 Q303 1489 262 1489 Q227 1489 202.5 1513.5 Q178 1538 178 1573 Z M600 1573 Q600 1614 632 1645.5 Q664 1677 707 1677 Q742 1677 766.5 1652.5 Q791 1628 791 1593 Q791 1552 759 1520.5 Q727 1489 684 1489 Q649 1489 624.5 1513.5 Q600 1538 600 1573 Z " />
<glyph glyph-name="Eth" unicode="&#xd0;" horiz-adv-x="1490" d="M45 614 L78 754 L272 754 L408 1366 L864 1366 Q1097 1366 1264.5 1200 Q1432 1034 1432 782 Q1432 639 1379.5 503 Q1327 367 1225.5 253 Q1124 139 954 69.5 Q784 0 571 0 L106 0 L242 614 L45 614 Z M309 152 L600 152 Q893 152 1073 333 Q1253 514 1253 774 Q1253 964 1133.5 1089 Q1014 1214 831 1214 L545 1214 L442 754 L788 754 L758 614 L412 614 L309 152 Z " />
<glyph glyph-name="Ntilde" unicode="&#xd1;" horiz-adv-x="1449" d="M49 0 L350 1366 L524 1366 L1071 289 L1311 1366 L1481 1366 L1180 0 L1016 0 L463 1100 L219 0 L49 0 Z M623 1499 Q678 1773 856 1774 Q907 1774 942 1744 Q977 1714 992.5 1679.5 Q1008 1645 1035.5 1615 Q1063 1585 1100 1585 Q1186 1585 1227 1761 L1321 1761 Q1262 1487 1085 1487 Q1034 1487 999.5 1516.5 Q965 1546 949.5 1581 Q934 1616 907.5 1645.5 Q881 1675 844 1675 Q756 1675 717 1499 L623 1499 Z " />
<glyph glyph-name="Ograve" unicode="&#xd2;" horiz-adv-x="1566" d="M123 573 Q123 915 346 1152 Q569 1389 891 1389 Q1163 1389 1342.5 1229 Q1522 1069 1522 793 Q1522 449 1298.5 212 Q1075 -25 754 -25 Q482 -25 302.5 136 Q123 297 123 573 Z M303 582 Q303 369 434 248 Q565 127 764 127 Q1002 127 1171.5 314.5 Q1341 502 1341 782 Q1341 995 1210 1116 Q1079 1237 881 1237 Q641 1237 472 1050 Q303 863 303 582 Z M748 1786 L907 1786 L1145 1491 L1028 1491 L748 1786 Z " />
<glyph glyph-name="Oacute" unicode="&#xd3;" horiz-adv-x="1566" d="M123 573 Q123 915 346 1152 Q569 1389 891 1389 Q1163 1389 1342.5 1229 Q1522 1069 1522 793 Q1522 449 1298.5 212 Q1075 -25 754 -25 Q482 -25 302.5 136 Q123 297 123 573 Z M303 582 Q303 369 434 248 Q565 127 764 127 Q1002 127 1171.5 314.5 Q1341 502 1341 782 Q1341 995 1210 1116 Q1079 1237 881 1237 Q641 1237 472 1050 Q303 863 303 582 Z M866 1491 L1235 1786 L1399 1786 L987 1491 L866 1491 Z " />
<glyph glyph-name="Ocircumflex" unicode="&#xd4;" horiz-adv-x="1566" d="M123 573 Q123 915 346 1152 Q569 1389 891 1389 Q1163 1389 1342.5 1229 Q1522 1069 1522 793 Q1522 449 1298.5 212 Q1075 -25 754 -25 Q482 -25 302.5 136 Q123 297 123 573 Z M303 582 Q303 369 434 248 Q565 127 764 127 Q1002 127 1171.5 314.5 Q1341 502 1341 782 Q1341 995 1210 1116 Q1079 1237 881 1237 Q641 1237 472 1050 Q303 863 303 582 Z M735 1491 L995 1786 L1143 1786 L1278 1491 L1178 1491 L1055 1708 L844 1491 L735 1491 Z " />
<glyph glyph-name="Otilde" unicode="&#xd5;" horiz-adv-x="1566" d="M123 573 Q123 915 346 1152 Q569 1389 891 1389 Q1163 1389 1342.5 1229 Q1522 1069 1522 793 Q1522 449 1298.5 212 Q1075 -25 754 -25 Q482 -25 302.5 136 Q123 297 123 573 Z M303 582 Q303 369 434 248 Q565 127 764 127 Q1002 127 1171.5 314.5 Q1341 502 1341 782 Q1341 995 1210 1116 Q1079 1237 881 1237 Q641 1237 472 1050 Q303 863 303 582 Z M684 1499 Q739 1773 918 1774 Q969 1774 1003.5 1744 Q1038 1714 1053.5 1679.5 Q1069 1645 1096.5 1615 Q1124 1585 1161 1585 Q1247 1585 1288 1761 L1382 1761 Q1323 1487 1147 1487 Q1096 1487 1061 1516.5 Q1026 1546 1010.5 1581 Q995 1616 968.5 1645.5 Q942 1675 905 1675 Q817 1675 778 1499 L684 1499 Z " />
<glyph glyph-name="Odieresis" unicode="&#xd6;" horiz-adv-x="1566" d="M123 573 Q123 915 346 1152 Q569 1389 891 1389 Q1163 1389 1342.5 1229 Q1522 1069 1522 793 Q1522 449 1298.5 212 Q1075 -25 754 -25 Q482 -25 302.5 136 Q123 297 123 573 Z M303 582 Q303 369 434 248 Q565 127 764 127 Q1002 127 1171.5 314.5 Q1341 502 1341 782 Q1341 995 1210 1116 Q1079 1237 881 1237 Q641 1237 472 1050 Q303 863 303 582 Z M717 1573 Q717 1614 748.5 1645.5 Q780 1677 823 1677 Q858 1677 882.5 1652.5 Q907 1628 907 1593 Q907 1552 874.5 1520.5 Q842 1489 801 1489 Q766 1489 741.5 1513.5 Q717 1538 717 1573 Z M1139 1573 Q1139 1614 1170.5 1645.5 Q1202 1677 1245 1677 Q1280 1677 1304.5 1652.5 Q1329 1628 1329 1593 Q1329 1552 1297.5 1520.5 Q1266 1489 1223 1489 Q1188 1489 1163.5 1513.5 Q1139 1538 1139 1573 Z " />
<glyph glyph-name="multiply" unicode="&#xd7;" horiz-adv-x="1021" d="M98 383 L477 692 L242 991 L328 1061 L561 760 L936 1067 L1001 985 L627 678 L860 377 L776 307 L541 608 L168 301 L98 383 Z " />
<glyph glyph-name="Oslash" unicode="&#xd8;" horiz-adv-x="1566" d="M123 573 Q123 915 346 1152 Q569 1389 891 1389 Q1114 1389 1278 1278 L1358 1366 L1495 1366 L1358 1212 Q1522 1052 1522 793 Q1522 449 1298.5 212 Q1075 -25 754 -25 Q525 -25 356 92 L274 0 L137 0 L279 160 Q123 321 123 573 Z M303 582 Q303 408 395 289 L1165 1151 Q1048 1237 881 1237 Q641 1237 472 1050 Q303 863 303 582 Z M469 217 Q590 127 764 127 Q1002 127 1171.5 314.5 Q1341 502 1341 782 Q1341 964 1241 1081 L469 217 Z " />
<glyph glyph-name="Ugrave" unicode="&#xd9;" horiz-adv-x="1435" d="M156 430 Q156 479 166 530 L350 1366 L522 1366 L338 535 Q328 463 328 449 Q330 306 425 216.5 Q520 127 688 127 Q868 127 967.5 230.5 Q1067 334 1110 535 L1294 1366 L1466 1366 L1282 532 Q1223 262 1084.5 118.5 Q946 -25 688 -25 Q436 -25 296 98 Q156 221 156 430 Z M678 1786 L838 1786 L1075 1491 L958 1491 L678 1786 Z " />
<glyph glyph-name="Uacute" unicode="&#xda;" horiz-adv-x="1435" d="M156 430 Q156 479 166 530 L350 1366 L522 1366 L338 535 Q328 463 328 449 Q330 306 425 216.5 Q520 127 688 127 Q868 127 967.5 230.5 Q1067 334 1110 535 L1294 1366 L1466 1366 L1282 532 Q1223 262 1084.5 118.5 Q946 -25 688 -25 Q436 -25 296 98 Q156 221 156 430 Z M797 1491 L1165 1786 L1329 1786 L918 1491 L797 1491 Z " />
<glyph glyph-name="Ucircumflex" unicode="&#xdb;" horiz-adv-x="1435" d="M156 430 Q156 479 166 530 L350 1366 L522 1366 L338 535 Q328 463 328 449 Q330 306 425 216.5 Q520 127 688 127 Q868 127 967.5 230.5 Q1067 334 1110 535 L1294 1366 L1466 1366 L1282 532 Q1223 262 1084.5 118.5 Q946 -25 688 -25 Q436 -25 296 98 Q156 221 156 430 Z M676 1491 L936 1786 L1083 1786 L1219 1491 L1118 1491 L995 1708 L784 1491 L676 1491 Z " />
<glyph glyph-name="Udieresis" unicode="&#xdc;" horiz-adv-x="1435" d="M156 430 Q156 479 166 530 L350 1366 L522 1366 L338 535 Q328 463 328 449 Q330 306 425 216.5 Q520 127 688 127 Q868 127 967.5 230.5 Q1067 334 1110 535 L1294 1366 L1466 1366 L1282 532 Q1223 262 1084.5 118.5 Q946 -25 688 -25 Q436 -25 296 98 Q156 221 156 430 Z M653 1573 Q653 1614 685 1645.5 Q717 1677 760 1677 Q795 1677 819.5 1652.5 Q844 1628 844 1593 Q844 1552 811 1520.5 Q778 1489 737 1489 Q702 1489 677.5 1513.5 Q653 1538 653 1573 Z M1075 1573 Q1075 1614 1107 1645.5 Q1139 1677 1182 1677 Q1217 1677 1241.5 1652.5 Q1266 1628 1266 1593 Q1266 1552 1234 1520.5 Q1202 1489 1159 1489 Q1124 1489 1099.5 1513.5 Q1075 1538 1075 1573 Z " />
<glyph glyph-name="Yacute" unicode="&#xdd;" horiz-adv-x="1282" d="M209 1366 L395 1366 L680 731 L1243 1366 L1454 1366 L743 578 L616 0 L446 0 L573 578 L209 1366 Z M729 1491 L1098 1786 L1262 1786 L850 1491 L729 1491 Z " />
<glyph glyph-name="Thorn" unicode="&#xde;" horiz-adv-x="1202" d="M49 0 L350 1366 L520 1366 L467 1122 L825 1122 Q977 1122 1080.5 1018.5 Q1184 915 1184 768 Q1184 684 1154 604 Q1124 524 1065 454.5 Q1006 385 901.5 342 Q797 299 662 299 L285 299 L219 0 L49 0 Z M317 451 L674 451 Q832 451 919 540 Q1006 629 1006 756 Q1006 846 938 908.5 Q870 971 778 971 L432 971 L317 451 Z " />
<glyph glyph-name="germandbls" unicode="&#xdf;" horiz-adv-x="1222" d="M45 0 L270 1022 Q307 1184 415.5 1285 Q524 1386 692 1386 Q831 1386 941 1316.5 Q1051 1247 1051 1139 Q1051 1065 1010 1010.5 Q969 956 909.5 925.5 Q850 895 790.5 868.5 Q731 842 690 804 Q649 766 649 715 Q649 668 700.5 633 Q752 598 824.5 572.5 Q897 547 969.5 517 Q1042 487 1093.5 431 Q1145 375 1145 297 Q1145 168 1041.5 71.5 Q938 -25 762 -25 Q621 -25 523.5 18 Q426 61 344 160 L440 256 Q559 102 766 102 Q868 102 929.5 155.5 Q991 209 991 279 Q991 330 940 365.5 Q889 401 817 426 Q745 451 672.5 479.5 Q600 508 549 561 Q498 614 498 690 Q498 768 538 825.5 Q578 883 635 915.5 Q692 948 750.5 974.5 Q809 1001 849 1035 Q889 1069 889 1112 Q889 1173 827.5 1211 Q766 1249 688 1249 Q590 1249 518 1187.5 Q446 1126 424 1022 L199 0 L45 0 Z " />
<glyph glyph-name="agrave" unicode="&#xe0;" horiz-adv-x="1177" d="M82 383 Q82 637 226.5 825.5 Q371 1014 600 1014 Q713 1014 804 966 Q895 918 944 834 L979 989 L1133 989 L913 0 L760 0 L791 141 Q658 -25 465 -25 Q293 -25 187.5 84 Q82 193 82 383 Z M244 412 Q244 275 319.5 194 Q395 113 520 113 Q608 113 689 161 Q770 209 823 281 L920 717 Q881 787 802 832 Q723 877 621 877 Q457 877 350.5 737.5 Q244 598 244 412 Z M434 1434 L594 1434 L831 1139 L715 1139 L434 1434 Z " />
<glyph glyph-name="aacute" unicode="&#xe1;" horiz-adv-x="1177" d="M82 383 Q82 637 226.5 825.5 Q371 1014 600 1014 Q713 1014 804 966 Q895 918 944 834 L979 989 L1133 989 L913 0 L760 0 L791 141 Q658 -25 465 -25 Q293 -25 187.5 84 Q82 193 82 383 Z M244 412 Q244 275 319.5 194 Q395 113 520 113 Q608 113 689 161 Q770 209 823 281 L920 717 Q881 787 802 832 Q723 877 621 877 Q457 877 350.5 737.5 Q244 598 244 412 Z M557 1139 L926 1434 L1090 1434 L678 1139 L557 1139 Z " />
<glyph glyph-name="acircumflex" unicode="&#xe2;" horiz-adv-x="1177" d="M82 383 Q82 637 226.5 825.5 Q371 1014 600 1014 Q713 1014 804 966 Q895 918 944 834 L979 989 L1133 989 L913 0 L760 0 L791 141 Q658 -25 465 -25 Q293 -25 187.5 84 Q82 193 82 383 Z M244 412 Q244 275 319.5 194 Q395 113 520 113 Q608 113 689 161 Q770 209 823 281 L920 717 Q881 787 802 832 Q723 877 621 877 Q457 877 350.5 737.5 Q244 598 244 412 Z M428 1139 L688 1434 L836 1434 L971 1139 L870 1139 L748 1356 L537 1139 L428 1139 Z " />
<glyph glyph-name="atilde" unicode="&#xe3;" horiz-adv-x="1177" d="M82 383 Q82 637 226.5 825.5 Q371 1014 600 1014 Q713 1014 804 966 Q895 918 944 834 L979 989 L1133 989 L913 0 L760 0 L791 141 Q658 -25 465 -25 Q293 -25 187.5 84 Q82 193 82 383 Z M244 412 Q244 275 319.5 194 Q395 113 520 113 Q608 113 689 161 Q770 209 823 281 L920 717 Q881 787 802 832 Q723 877 621 877 Q457 877 350.5 737.5 Q244 598 244 412 Z M377 1147 Q432 1421 610 1421 Q661 1421 696 1391.5 Q731 1362 746.5 1327 Q762 1292 789.5 1262.5 Q817 1233 854 1233 Q940 1233 981 1409 L1075 1409 Q1016 1135 840 1135 Q789 1135 754 1164.5 Q719 1194 703.5 1229 Q688 1264 661.5 1293.5 Q635 1323 598 1323 Q510 1323 471 1147 L377 1147 Z " />
<glyph glyph-name="adieresis" unicode="&#xe4;" horiz-adv-x="1177" d="M82 383 Q82 637 226.5 825.5 Q371 1014 600 1014 Q713 1014 804 966 Q895 918 944 834 L979 989 L1133 989 L913 0 L760 0 L791 141 Q658 -25 465 -25 Q293 -25 187.5 84 Q82 193 82 383 Z M244 412 Q244 275 319.5 194 Q395 113 520 113 Q608 113 689 161 Q770 209 823 281 L920 717 Q881 787 802 832 Q723 877 621 877 Q457 877 350.5 737.5 Q244 598 244 412 Z M414 1227 Q414 1268 445.5 1299.5 Q477 1331 520 1331 Q555 1331 579.5 1306.5 Q604 1282 604 1247 Q604 1206 571.5 1174.5 Q539 1143 498 1143 Q463 1143 438.5 1167.5 Q414 1192 414 1227 Z M836 1227 Q836 1268 867.5 1299.5 Q899 1331 942 1331 Q977 1331 1001.5 1306.5 Q1026 1282 1026 1247 Q1026 1206 994.5 1174.5 Q963 1143 920 1143 Q885 1143 860.5 1167.5 Q836 1192 836 1227 Z " />
<glyph glyph-name="aring" unicode="&#xe5;" horiz-adv-x="1177" d="M82 383 Q82 637 226.5 825.5 Q371 1014 600 1014 Q713 1014 804 966 Q895 918 944 834 L979 989 L1133 989 L913 0 L760 0 L791 141 Q658 -25 465 -25 Q293 -25 187.5 84 Q82 193 82 383 Z M244 412 Q244 275 319.5 194 Q395 113 520 113 Q608 113 689 161 Q770 209 823 281 L920 717 Q881 787 802 832 Q723 877 621 877 Q457 877 350.5 737.5 Q244 598 244 412 Z M539 1303 Q539 1393 604.5 1458.5 Q670 1524 760 1524 Q842 1524 892 1473.5 Q942 1423 942 1341 Q942 1251 876.5 1185.5 Q811 1120 721 1120 Q641 1120 590 1171.5 Q539 1223 539 1303 Z M621 1311 Q621 1264 650.5 1233 Q680 1202 727 1202 Q780 1202 820 1241 Q860 1280 860 1333 Q860 1382 831.5 1412 Q803 1442 756 1442 Q703 1442 662 1403 Q621 1364 621 1311 Z " />
<glyph glyph-name="ae" unicode="&#xe6;" horiz-adv-x="1923" d="M82 383 Q82 547 144.5 689 Q207 831 328 922.5 Q449 1014 602 1014 Q833 1014 946 834 L979 989 L1133 989 L1096 825 Q1248 1013 1452 1014 Q1636 1014 1735.5 899 Q1835 784 1835 590 Q1835 508 1817 444 L1020 444 Q1018 436 1018 397 Q1018 274 1105 190 Q1192 106 1354 106 Q1510 106 1628 203 L1681 92 Q1525 -25 1356 -25 Q1200 -25 1100.5 46 Q1001 117 965 236 L913 0 L760 0 L793 141 Q660 -25 465 -25 Q293 -25 187.5 84 Q82 193 82 383 Z M246 412 Q246 275 321.5 194 Q397 113 520 113 Q610 113 691 161 Q772 209 823 281 L920 717 Q883 787 803 832 Q723 877 621 877 Q457 877 351.5 737.5 Q246 598 246 412 Z M1036 559 L1692 559 Q1694 567 1694 596 Q1694 727 1619 807 Q1544 887 1403 887 Q1270 887 1165.5 789.5 Q1061 692 1036 559 Z " />
<glyph glyph-name="ccedilla" unicode="&#xe7;" horiz-adv-x="1015" d="M82 418 Q82 664 245 839 Q408 1014 639 1014 Q899 1014 1010 829 L893 741 Q815 876 643 877 Q463 877 352.5 741.5 Q242 606 242 420 Q242 273 329 193 Q416 113 551 113 Q703 113 803 231 L889 127 Q742 -25 537 -25 L514 -25 L461 -113 Q486 -90 528 -90 Q581 -90 614 -122 Q647 -154 647 -209 Q647 -291 585.5 -341 Q524 -391 426 -391 Q287 -391 205 -313 L260 -240 Q328 -312 430 -311 Q489 -311 522 -284.5 Q555 -258 555 -215 Q555 -154 481 -154 Q438 -154 408 -188 L348 -150 L428 -14 Q268 15 175 128.5 Q82 242 82 418 Z " />
<glyph glyph-name="egrave" unicode="&#xe8;" horiz-adv-x="1153" d="M82 414 Q82 662 244 838 Q406 1014 639 1014 Q834 1014 949.5 893 Q1065 772 1065 582 Q1065 521 1049 444 L244 444 Q240 428 240 397 Q240 274 328 188 Q416 102 575 102 Q741 102 860 201 L913 92 Q757 -25 565 -25 Q342 -25 212 95 Q82 215 82 414 Z M258 559 L918 559 L924 559 Q924 563 925 576.5 Q926 590 926 596 Q926 725 847 806 Q768 887 625 887 Q492 887 387.5 789.5 Q283 692 258 559 Z M465 1434 L625 1434 L862 1139 L745 1139 L465 1434 Z " />
<glyph glyph-name="eacute" unicode="&#xe9;" horiz-adv-x="1153" d="M82 414 Q82 662 244 838 Q406 1014 639 1014 Q834 1014 949.5 893 Q1065 772 1065 582 Q1065 521 1049 444 L244 444 Q240 428 240 397 Q240 274 328 188 Q416 102 575 102 Q741 102 860 201 L913 92 Q757 -25 565 -25 Q342 -25 212 95 Q82 215 82 414 Z M258 559 L918 559 L924 559 Q924 563 925 576.5 Q926 590 926 596 Q926 725 847 806 Q768 887 625 887 Q492 887 387.5 789.5 Q283 692 258 559 Z M588 1139 L956 1434 L1120 1434 L709 1139 L588 1139 Z " />
<glyph glyph-name="ecircumflex" unicode="&#xea;" horiz-adv-x="1153" d="M82 414 Q82 662 244 838 Q406 1014 639 1014 Q834 1014 949.5 893 Q1065 772 1065 582 Q1065 521 1049 444 L244 444 Q240 428 240 397 Q240 274 328 188 Q416 102 575 102 Q741 102 860 201 L913 92 Q757 -25 565 -25 Q342 -25 212 95 Q82 215 82 414 Z M258 559 L918 559 L924 559 Q924 563 925 576.5 Q926 590 926 596 Q926 725 847 806 Q768 887 625 887 Q492 887 387.5 789.5 Q283 692 258 559 Z M457 1139 L717 1434 L864 1434 L999 1139 L899 1139 L776 1356 L565 1139 L457 1139 Z " />
<glyph glyph-name="edieresis" unicode="&#xeb;" horiz-adv-x="1153" d="M82 414 Q82 662 244 838 Q406 1014 639 1014 Q834 1014 949.5 893 Q1065 772 1065 582 Q1065 521 1049 444 L244 444 Q240 428 240 397 Q240 274 328 188 Q416 102 575 102 Q741 102 860 201 L913 92 Q757 -25 565 -25 Q342 -25 212 95 Q82 215 82 414 Z M258 559 L918 559 L924 559 Q924 563 925 576.5 Q926 590 926 596 Q926 725 847 806 Q768 887 625 887 Q492 887 387.5 789.5 Q283 692 258 559 Z M442 1227 Q442 1268 474 1299.5 Q506 1331 549 1331 Q584 1331 608.5 1306.5 Q633 1282 633 1247 Q633 1206 600 1174.5 Q567 1143 526 1143 Q491 1143 466.5 1167.5 Q442 1192 442 1227 Z M864 1227 Q864 1268 896 1299.5 Q928 1331 971 1331 Q1006 1331 1030.5 1306.5 Q1055 1282 1055 1247 Q1055 1206 1023 1174.5 Q991 1143 948 1143 Q913 1143 888.5 1167.5 Q864 1192 864 1227 Z " />
<glyph glyph-name="igrave" unicode="&#xec;" horiz-adv-x="460" d="M43 0 L262 989 L416 989 L197 0 L43 0 Z M109 1434 L268 1434 L506 1139 L389 1139 L109 1434 Z " />
<glyph glyph-name="iacute" unicode="&#xed;" horiz-adv-x="460" d="M43 0 L262 989 L416 989 L197 0 L43 0 Z M233 1139 L602 1434 L766 1434 L354 1139 L233 1139 Z " />
<glyph glyph-name="icircumflex" unicode="&#xee;" horiz-adv-x="460" d="M43 0 L262 989 L416 989 L197 0 L43 0 Z M102 1139 L362 1434 L510 1434 L645 1139 L545 1139 L422 1356 L211 1139 L102 1139 Z " />
<glyph glyph-name="idieresis" unicode="&#xef;" horiz-adv-x="460" d="M43 0 L262 989 L416 989 L197 0 L43 0 Z M88 1227 Q88 1268 120 1299.5 Q152 1331 195 1331 Q230 1331 254.5 1306.5 Q279 1282 279 1247 Q279 1206 246 1174.5 Q213 1143 172 1143 Q137 1143 112.5 1167.5 Q88 1192 88 1227 Z M510 1227 Q510 1268 541.5 1299.5 Q573 1331 616 1331 Q651 1331 675.5 1306.5 Q700 1282 700 1247 Q700 1206 668.5 1174.5 Q637 1143 594 1143 Q559 1143 534.5 1167.5 Q510 1192 510 1227 Z " />
<glyph glyph-name="eth" unicode="&#xf0;" horiz-adv-x="1171" d="M80 397 Q80 641 230.5 811 Q381 981 592 981 Q701 981 794 926.5 Q887 872 934 764 Q868 959 688 1143 L365 1047 L346 1130 L616 1210 Q573 1249 483 1319 L592 1436 Q709 1346 791 1264 L1030 1335 L1047 1251 L854 1194 Q1092 913 1092 621 Q1092 351 936 163 Q780 -25 541 -25 Q336 -25 208 94 Q80 213 80 397 Z M242 414 Q242 279 321.5 196 Q401 113 543 113 Q699 113 808.5 242 Q918 371 918 553 Q918 670 841 757 Q764 844 614 844 Q460 844 351 719 Q242 594 242 414 Z " />
<glyph glyph-name="ntilde" unicode="&#xf1;" horiz-adv-x="1130" d="M49 0 L268 989 L422 989 L389 846 Q561 1014 739 1014 Q872 1014 953 950.5 Q1034 887 1034 770 Q1034 731 1022 686 L870 0 L719 0 L862 649 Q872 700 872 719 Q872 877 668 877 Q510 877 362 721 L203 0 L49 0 Z M389 1147 Q444 1421 623 1421 Q674 1421 708.5 1391.5 Q743 1362 758.5 1327 Q774 1292 801.5 1262.5 Q829 1233 866 1233 Q952 1233 993 1409 L1087 1409 Q1028 1135 852 1135 Q801 1135 766 1164.5 Q731 1194 715.5 1229 Q700 1264 673.5 1293.5 Q647 1323 610 1323 Q522 1323 483 1147 L389 1147 Z " />
<glyph glyph-name="ograve" unicode="&#xf2;" horiz-adv-x="1171" d="M82 416 Q82 656 240.5 835 Q399 1014 633 1014 Q842 1014 963.5 893 Q1085 772 1085 575 Q1085 333 926.5 154 Q768 -25 535 -25 Q326 -25 204 96 Q82 217 82 416 Z M244 420 Q244 279 321.5 196 Q399 113 539 113 Q703 113 813.5 251 Q924 389 924 569 Q924 710 846 793.5 Q768 877 629 877 Q465 877 354.5 738.5 Q244 600 244 420 Z M465 1434 L625 1434 L862 1139 L745 1139 L465 1434 Z " />
<glyph glyph-name="oacute" unicode="&#xf3;" horiz-adv-x="1171" d="M82 416 Q82 656 240.5 835 Q399 1014 633 1014 Q842 1014 963.5 893 Q1085 772 1085 575 Q1085 333 926.5 154 Q768 -25 535 -25 Q326 -25 204 96 Q82 217 82 416 Z M244 420 Q244 279 321.5 196 Q399 113 539 113 Q703 113 813.5 251 Q924 389 924 569 Q924 710 846 793.5 Q768 877 629 877 Q465 877 354.5 738.5 Q244 600 244 420 Z M588 1139 L956 1434 L1120 1434 L709 1139 L588 1139 Z " />
<glyph glyph-name="ocircumflex" unicode="&#xf4;" horiz-adv-x="1171" d="M82 416 Q82 656 240.5 835 Q399 1014 633 1014 Q842 1014 963.5 893 Q1085 772 1085 575 Q1085 333 926.5 154 Q768 -25 535 -25 Q326 -25 204 96 Q82 217 82 416 Z M244 420 Q244 279 321.5 196 Q399 113 539 113 Q703 113 813.5 251 Q924 389 924 569 Q924 710 846 793.5 Q768 877 629 877 Q465 877 354.5 738.5 Q244 600 244 420 Z M459 1139 L719 1434 L866 1434 L1001 1139 L901 1139 L778 1356 L567 1139 L459 1139 Z " />
<glyph glyph-name="otilde" unicode="&#xf5;" horiz-adv-x="1171" d="M82 416 Q82 656 240.5 835 Q399 1014 633 1014 Q842 1014 963.5 893 Q1085 772 1085 575 Q1085 333 926.5 154 Q768 -25 535 -25 Q326 -25 204 96 Q82 217 82 416 Z M244 420 Q244 279 321.5 196 Q399 113 539 113 Q703 113 813.5 251 Q924 389 924 569 Q924 710 846 793.5 Q768 877 629 877 Q465 877 354.5 738.5 Q244 600 244 420 Z M410 1147 Q465 1421 643 1421 Q694 1421 729 1391.5 Q764 1362 779.5 1327 Q795 1292 822.5 1262.5 Q850 1233 887 1233 Q973 1233 1014 1409 L1108 1409 Q1049 1135 872 1135 Q821 1135 786.5 1164.5 Q752 1194 736.5 1229 Q721 1264 694.5 1293.5 Q668 1323 631 1323 Q543 1323 504 1147 L410 1147 Z " />
<glyph glyph-name="odieresis" unicode="&#xf6;" horiz-adv-x="1171" d="M82 416 Q82 656 240.5 835 Q399 1014 633 1014 Q842 1014 963.5 893 Q1085 772 1085 575 Q1085 333 926.5 154 Q768 -25 535 -25 Q326 -25 204 96 Q82 217 82 416 Z M244 420 Q244 279 321.5 196 Q399 113 539 113 Q703 113 813.5 251 Q924 389 924 569 Q924 710 846 793.5 Q768 877 629 877 Q465 877 354.5 738.5 Q244 600 244 420 Z M442 1227 Q442 1268 474 1299.5 Q506 1331 549 1331 Q584 1331 608.5 1306.5 Q633 1282 633 1247 Q633 1206 600 1174.5 Q567 1143 526 1143 Q491 1143 466.5 1167.5 Q442 1192 442 1227 Z M864 1227 Q864 1268 896 1299.5 Q928 1331 971 1331 Q1006 1331 1030.5 1306.5 Q1055 1282 1055 1247 Q1055 1206 1023 1174.5 Q991 1143 948 1143 Q913 1143 888.5 1167.5 Q864 1192 864 1227 Z " />
<glyph glyph-name="divide" unicode="&#xf7;" horiz-adv-x="1046" d="M90 637 L113 743 L1040 743 L1018 637 L90 637 Z M383 289 Q383 330 413.5 359.5 Q444 389 485 389 Q522 389 546.5 363.5 Q571 338 571 303 Q571 260 541.5 231.5 Q512 203 469 203 Q434 203 408.5 228.5 Q383 254 383 289 Z M557 1071 Q557 1112 586.5 1141.5 Q616 1171 659 1171 Q694 1171 719.5 1145.5 Q745 1120 745 1085 Q745 1042 714.5 1012.5 Q684 983 641 983 Q606 983 581.5 1008.5 Q557 1034 557 1071 Z " />
<glyph glyph-name="oslash" unicode="&#xf8;" horiz-adv-x="1171" d="M16 0 L162 143 Q82 254 82 416 Q82 656 240.5 835 Q399 1014 633 1014 Q819 1014 942 913 L1018 989 L1137 989 L997 852 Q1085 739 1085 575 Q1085 333 926.5 154 Q768 -25 535 -25 Q340 -25 217 82 L135 0 L16 0 Z M244 420 Q244 328 279 258 L831 805 Q753 877 629 877 Q465 877 354.5 738.5 Q244 600 244 420 Z M328 188 Q404 112 539 113 Q703 113 813.5 251 Q924 389 924 569 Q924 667 883 739 L328 188 Z " />
<glyph glyph-name="ugrave" unicode="&#xf9;" horiz-adv-x="1128" d="M100 219 Q100 246 111 303 L262 989 L416 989 L272 340 Q262 295 262 272 Q262 112 467 113 Q623 113 770 268 L930 989 L1083 989 L864 0 L711 0 L743 143 Q571 -25 395 -25 Q260 -25 180 38.5 Q100 102 100 219 Z M449 1434 L608 1434 L846 1139 L729 1139 L449 1434 Z " />
<glyph glyph-name="uacute" unicode="&#xfa;" horiz-adv-x="1128" d="M100 219 Q100 246 111 303 L262 989 L416 989 L272 340 Q262 295 262 272 Q262 112 467 113 Q623 113 770 268 L930 989 L1083 989 L864 0 L711 0 L743 143 Q571 -25 395 -25 Q260 -25 180 38.5 Q100 102 100 219 Z M569 1139 L938 1434 L1102 1434 L690 1139 L569 1139 Z " />
<glyph glyph-name="ucircumflex" unicode="&#xfb;" horiz-adv-x="1128" d="M100 219 Q100 246 111 303 L262 989 L416 989 L272 340 Q262 295 262 272 Q262 112 467 113 Q623 113 770 268 L930 989 L1083 989 L864 0 L711 0 L743 143 Q571 -25 395 -25 Q260 -25 180 38.5 Q100 102 100 219 Z M436 1139 L696 1434 L844 1434 L979 1139 L879 1139 L756 1356 L545 1139 L436 1139 Z " />
<glyph glyph-name="udieresis" unicode="&#xfc;" horiz-adv-x="1128" d="M100 219 Q100 246 111 303 L262 989 L416 989 L272 340 Q262 295 262 272 Q262 112 467 113 Q623 113 770 268 L930 989 L1083 989 L864 0 L711 0 L743 143 Q571 -25 395 -25 Q260 -25 180 38.5 Q100 102 100 219 Z M428 1227 Q428 1268 460 1299.5 Q492 1331 535 1331 Q570 1331 594 1306.5 Q618 1282 618 1247 Q618 1206 585.5 1174.5 Q553 1143 512 1143 Q477 1143 452.5 1167.5 Q428 1192 428 1227 Z M850 1227 Q850 1268 881.5 1299.5 Q913 1331 956 1331 Q991 1331 1015.5 1306.5 Q1040 1282 1040 1247 Q1040 1206 1008.5 1174.5 Q977 1143 934 1143 Q899 1143 874.5 1167.5 Q850 1192 850 1227 Z " />
<glyph glyph-name="yacute" unicode="&#xfd;" horiz-adv-x="1003" d="M-94 -379 L-41 -242 Q-4 -258 57 -258 Q137 -258 203 -160 L303 -6 L115 989 L276 989 L424 178 L934 989 L1106 989 L344 -201 Q219 -402 37 -401 Q-39 -402 -94 -379 Z M506 1139 L874 1434 L1038 1434 L627 1139 L506 1139 Z " />
<glyph glyph-name="thorn" unicode="&#xfe;" horiz-adv-x="1171" d="M-41 -377 L344 1366 L498 1366 L385 848 Q518 1014 711 1014 Q885 1014 989.5 905.5 Q1094 797 1094 606 Q1094 352 949.5 163.5 Q805 -25 575 -25 Q462 -25 371.5 23.5 Q281 72 231 156 L113 -377 L-41 -377 Z M256 272 Q295 202 374 157.5 Q453 113 555 113 Q719 113 825.5 252 Q932 391 932 578 Q932 715 856 796 Q780 877 655 877 Q567 877 486.5 828.5 Q406 780 352 709 L256 272 Z " />
<glyph glyph-name="ydieresis" unicode="&#xff;" horiz-adv-x="1003" d="M-94 -379 L-41 -242 Q-4 -258 57 -258 Q137 -258 203 -160 L303 -6 L115 989 L276 989 L424 178 L934 989 L1106 989 L344 -201 Q219 -402 37 -401 Q-39 -402 -94 -379 Z M358 1227 Q358 1268 390 1299.5 Q422 1331 465 1331 Q500 1331 524.5 1306.5 Q549 1282 549 1247 Q549 1206 516 1174.5 Q483 1143 442 1143 Q407 1143 382.5 1167.5 Q358 1192 358 1227 Z M780 1227 Q780 1268 812 1299.5 Q844 1331 887 1331 Q922 1331 946.5 1306.5 Q971 1282 971 1247 Q971 1206 939 1174.5 Q907 1143 864 1143 Q829 1143 804.5 1167.5 Q780 1192 780 1227 Z " />
<glyph glyph-name="OE" unicode="&#x152;" horiz-adv-x="2263" d="M123 573 Q123 927 349 1156.5 Q575 1386 893 1386 Q1268 1386 1382 1071 L1448 1366 L2343 1366 L2310 1214 L1585 1214 L1487 774 L2198 774 L2165 623 L1452 623 L1348 152 L2075 152 L2042 0 L1147 0 L1190 209 Q1014 -24 698 -25 Q444 -25 283.5 143 Q123 311 123 573 Z M303 582 Q303 375 427 251 Q551 127 750 127 Q897 127 1027 203 Q1157 279 1237 412 L1337 868 Q1308 1042 1189.5 1138.5 Q1071 1235 893 1235 Q647 1235 475 1046.5 Q303 858 303 582 Z " />
<glyph glyph-name="oe" unicode="&#x153;" horiz-adv-x="1970" d="M82 416 Q82 654 238.5 834 Q395 1014 629 1014 Q795 1014 898 922.5 Q1001 831 1022 731 Q1204 1014 1462 1014 Q1648 1014 1767 898 Q1886 782 1886 582 Q1886 510 1868 444 L1071 444 Q1069 436 1069 397 Q1069 272 1156 187 Q1243 102 1401 102 Q1561 102 1679 201 L1733 92 Q1590 -25 1391 -25 Q1217 -25 1103 65.5 Q989 156 967 258 Q930 201 900 165 Q870 129 816 79 Q762 29 689 2 Q616 -25 530 -25 Q327 -25 204.5 93 Q82 211 82 416 Z M244 420 Q244 279 320.5 196 Q397 113 535 113 Q695 113 805 248 Q915 383 915 569 Q915 723 832.5 800 Q750 877 625 877 Q467 877 355.5 741.5 Q244 606 244 420 Z M1087 559 L1743 559 Q1747 575 1747 596 Q1747 721 1669 804 Q1591 887 1450 887 Q1311 887 1207 783.5 Q1103 680 1087 559 Z " />
<glyph glyph-name="Ydieresis" unicode="&#x178;" horiz-adv-x="1282" d="M209 1366 L395 1366 L680 731 L1243 1366 L1454 1366 L743 578 L616 0 L446 0 L573 578 L209 1366 Z M582 1573 Q582 1614 613.5 1645.5 Q645 1677 688 1677 Q723 1677 747.5 1652.5 Q772 1628 772 1593 Q772 1552 739.5 1520.5 Q707 1489 666 1489 Q631 1489 606.5 1513.5 Q582 1538 582 1573 Z M1004 1573 Q1004 1614 1035.5 1645.5 Q1067 1677 1110 1677 Q1145 1677 1169.5 1652.5 Q1194 1628 1194 1593 Q1194 1552 1162 1520.5 Q1130 1489 1087 1489 Q1052 1489 1028 1513.5 Q1004 1538 1004 1573 Z " />
<glyph glyph-name="circumflex" unicode="&#x2c6;" horiz-adv-x="542" d="M141 1139 L401 1434 L549 1434 L684 1139 L584 1139 L461 1356 L250 1139 L141 1139 Z " />
<glyph glyph-name="tilde" unicode="&#x2dc;" horiz-adv-x="641" d="M143 1147 Q198 1421 377 1421 Q428 1421 463 1391.5 Q498 1362 513 1327 Q528 1292 556 1262.5 Q584 1233 621 1233 Q707 1233 748 1409 L842 1409 Q783 1135 606 1135 Q555 1135 520 1164.5 Q485 1194 470 1229 Q455 1264 428 1293.5 Q401 1323 365 1323 Q277 1323 238 1147 L143 1147 Z " />
<glyph glyph-name="endash" unicode="&#x2013;" horiz-adv-x="1214" d="M45 428 L74 563 L1165 563 L1137 428 L45 428 Z " />
<glyph glyph-name="emdash" unicode="&#x2014;" horiz-adv-x="1705" d="M45 428 L74 563 L1657 563 L1628 428 L45 428 Z " />
<glyph glyph-name="quoteleft" unicode="&#x2018;" horiz-adv-x="471" d="M223 1055 Q223 1149 291.5 1243 Q360 1337 459 1386 L522 1321 Q465 1292 416 1244 Q367 1196 350 1149 L367 1149 Q404 1149 429.5 1123.5 Q455 1098 455 1057 Q455 1008 418 972 Q381 936 332 936 Q285 936 254 968 Q223 1000 223 1055 Z " />
<glyph glyph-name="quoteright" unicode="&#x2019;" horiz-adv-x="471" d="M225 1001 Q282 1030 331.5 1078 Q381 1126 397 1174 L381 1174 Q344 1174 319.5 1199.5 Q295 1225 295 1266 Q295 1315 331 1350.5 Q367 1386 416 1386 Q463 1386 493.5 1354.5 Q524 1323 524 1268 Q524 1174 455.5 1079.5 Q387 985 289 934 L225 1001 Z " />
<glyph glyph-name="quotesinglbase" unicode="&#x201a;" horiz-adv-x="471" d="M-37 -180 Q100 -110 135 -8 L119 -8 Q82 -8 56.5 17.5 Q31 43 31 84 Q31 133 67.5 169 Q104 205 154 205 Q201 205 231.5 173 Q262 141 262 86 Q262 -8 193.5 -102.5 Q125 -197 27 -248 L-37 -180 Z " />
<glyph glyph-name="quotedblleft" unicode="&#x201c;" horiz-adv-x="798" d="M238 1055 Q238 1149 307.5 1243 Q377 1337 475 1386 L537 1321 Q480 1292 430.5 1244 Q381 1196 365 1149 L381 1149 Q418 1149 443.5 1123.5 Q469 1098 469 1057 Q469 1008 432 972 Q395 936 346 936 Q299 936 268.5 968 Q238 1000 238 1055 Z M563 1055 Q563 1149 632.5 1243 Q702 1337 801 1386 L864 1321 Q807 1292 758 1244 Q709 1196 692 1149 L709 1149 Q746 1149 770.5 1123.5 Q795 1098 795 1057 Q795 1008 758 972 Q721 936 672 936 Q627 936 595 968 Q563 1000 563 1055 Z " />
<glyph glyph-name="quotedblright" unicode="&#x201d;" horiz-adv-x="798" d="M225 1001 Q282 1030 331.5 1078 Q381 1126 397 1174 L381 1174 Q344 1174 319.5 1199.5 Q295 1225 295 1266 Q295 1315 331 1350.5 Q367 1386 416 1386 Q463 1386 493.5 1354.5 Q524 1323 524 1268 Q524 1174 455.5 1079.5 Q387 985 289 934 L225 1001 Z M553 1001 Q610 1030 658.5 1078 Q707 1126 725 1174 L709 1174 Q672 1174 646.5 1199.5 Q621 1225 621 1266 Q621 1315 657.5 1351 Q694 1387 743 1387 Q790 1387 821 1355 Q852 1323 852 1268 Q852 1174 782.5 1079.5 Q713 985 614 934 L553 1001 Z " />
<glyph glyph-name="quotedblbase" unicode="&#x201e;" horiz-adv-x="798" d="M-37 -180 Q100 -110 135 -8 L119 -8 Q82 -8 56.5 17.5 Q31 43 31 84 Q31 133 67.5 169 Q104 205 154 205 Q201 205 231.5 173 Q262 141 262 86 Q262 -8 193.5 -102.5 Q125 -197 27 -248 L-37 -180 Z M291 -180 Q348 -151 396 -104 Q444 -57 461 -8 L444 -8 Q409 -8 383.5 17.5 Q358 43 358 84 Q358 133 395 169 Q432 205 481 205 Q528 205 559 173 Q590 141 590 86 Q590 -8 520.5 -102.5 Q451 -197 352 -248 L291 -180 Z " />
<glyph glyph-name="bullet" unicode="&#x2022;" horiz-adv-x="733" d="M143 475 Q143 573 218 645 Q293 717 391 717 Q475 717 532.5 659.5 Q590 602 590 518 Q590 420 515 348 Q440 276 342 276 Q258 276 200.5 333.5 Q143 391 143 475 Z " />
<glyph glyph-name="ellipsis" unicode="&#x2026;" horiz-adv-x="1415" d="M33 84 Q33 133 68.5 169 Q104 205 156 205 Q199 205 228.5 174 Q258 143 258 100 Q258 49 222 14.5 Q186 -20 135 -20 Q92 -20 62.5 9.5 Q33 39 33 84 Z M504 84 Q504 133 539.5 169 Q575 205 627 205 Q670 205 699.5 174 Q729 143 729 100 Q729 49 693 14.5 Q657 -20 606 -20 Q563 -20 533.5 9.5 Q504 39 504 84 Z M975 84 Q975 133 1011 169 Q1047 205 1098 205 Q1143 205 1172.5 174 Q1202 143 1202 100 Q1202 49 1165 14.5 Q1128 -20 1077 -20 Q1034 -20 1004.5 9.5 Q975 39 975 84 Z " />
<glyph glyph-name="guilsinglleft" unicode="&#x2039;" horiz-adv-x="604" d="M59 498 L469 860 L631 860 L213 487 L451 129 L305 129 L59 498 Z " />
<glyph glyph-name="guilsinglright" unicode="&#x203a;" horiz-adv-x="604" d="M-23 129 L395 502 L158 860 L303 860 L549 492 L139 129 L-23 129 Z " />
<glyph glyph-name="Euro" unicode="&#x20ac;" horiz-adv-x="1423" d="M59 485 L84 592 L172 592 Q176 692 193 776 L123 776 L147 885 L225 885 Q313 1116 510 1252.5 Q707 1389 940 1389 Q1139 1389 1282 1303 Q1425 1217 1499 1067 L1335 1004 Q1278 1121 1171.5 1179 Q1065 1237 932 1237 Q772 1237 630.5 1142 Q489 1047 416 885 L1059 885 L1034 776 L377 776 Q352 690 352 592 L993 592 L969 485 L360 485 Q389 321 509 224 Q629 127 813 127 Q1016 127 1180 285 L1307 188 Q1102 -25 803 -25 Q551 -25 379 113.5 Q207 252 176 485 L59 485 Z " />
<glyph glyph-name="trademark" unicode="&#x2122;" horiz-adv-x="929" d="M215 1313 L225 1366 L537 1366 L526 1313 L399 1313 L311 915 L254 915 L342 1313 L215 1313 Z M512 915 L610 1366 L698 1366 L758 1038 L961 1366 L1049 1366 L950 915 L893 915 L975 1288 L739 915 L723 915 L651 1288 L569 915 L512 915 Z " />
<glyph glyph-name="uniE000" unicode="&#xe000;" horiz-adv-x="990" d="M0 990 L990 990 L990 0 L0 0 L0 990 Z " />
<glyph glyph-name="uniFB01" unicode="&#xfb01;" horiz-adv-x="1042" d="M86 0 L274 854 L111 854 L141 989 L305 989 L322 1065 Q394 1387 647 1386 Q747 1386 823 1339 L764 1229 Q725 1260 659 1260 Q518 1260 475 1065 L459 989 L659 989 L629 854 L428 854 L240 0 L86 0 Z M625 0 L844 989 L997 989 L778 0 L625 0 Z M868 1221 Q868 1272 905 1304.5 Q942 1337 985 1337 Q1024 1337 1051.5 1310.5 Q1079 1284 1079 1247 Q1079 1196 1042.5 1163 Q1006 1130 963 1130 Q922 1130 895 1157 Q868 1184 868 1221 Z " />
<glyph glyph-name="uniFB02" unicode="&#xfb02;" horiz-adv-x="1042" d="M86 0 L274 854 L111 854 L141 989 L305 989 L322 1065 Q394 1387 647 1386 Q747 1386 823 1339 L764 1229 Q725 1260 659 1260 Q518 1260 475 1065 L459 989 L659 989 L629 854 L428 854 L240 0 L86 0 Z M625 0 L926 1366 L1079 1366 L778 0 L625 0 Z " />
<glyph glyph-name="uniFB03" unicode="&#xfb03;" horiz-adv-x="1622" d="M86 0 L274 854 L111 854 L141 989 L305 989 L322 1065 Q396 1387 647 1386 Q782 1386 866 1303 L784 1208 Q739 1259 659 1260 Q518 1260 475 1065 L459 989 L659 989 L629 854 L428 854 L240 0 L86 0 Z M668 0 L856 854 L692 854 L723 989 L887 989 L903 1065 Q975 1387 1229 1386 Q1329 1386 1405 1339 L1346 1229 Q1307 1260 1241 1260 Q1100 1260 1057 1065 L1040 989 L1241 989 L1210 854 L1010 854 L821 0 L668 0 Z M1204 0 L1423 989 L1577 989 L1358 0 L1204 0 Z M1448 1221 Q1448 1272 1485 1304.5 Q1522 1337 1565 1337 Q1604 1337 1631.5 1310.5 Q1659 1284 1659 1247 Q1659 1196 1622 1163 Q1585 1130 1542 1130 Q1501 1130 1474.5 1157 Q1448 1184 1448 1221 Z " />
<glyph glyph-name="uniFB04" unicode="&#xfb04;" horiz-adv-x="1622" d="M86 0 L274 854 L111 854 L141 989 L305 989 L322 1065 Q396 1387 647 1386 Q782 1386 866 1303 L784 1208 Q739 1259 659 1260 Q518 1260 475 1065 L459 989 L659 989 L629 854 L428 854 L240 0 L86 0 Z M668 0 L856 854 L692 854 L723 989 L887 989 L903 1065 Q975 1387 1229 1386 Q1329 1386 1405 1339 L1346 1229 Q1307 1260 1241 1260 Q1100 1260 1057 1065 L1040 989 L1241 989 L1210 854 L1010 854 L821 0 L668 0 Z M1204 0 L1505 1366 L1659 1366 L1358 0 L1204 0 Z " />
</font>
</svg>
